<svg width="1855" height="583" viewBox="0 0 1855 583" fill="none" xmlns="http://www.w3.org/2000/svg">
<g clip-path="url(#clip0_810_2138)">
<mask id="mask0_810_2138" style="mask-type:alpha" maskUnits="userSpaceOnUse" x="-58" y="-34" width="1976" height="836">
<rect x="-57.5938" y="-33.5885" width="1974.99" height="834.914" fill="url(#paint0_linear_810_2138)"/>
</mask>
<g mask="url(#mask0_810_2138)">
<path d="M259.169 234.837C266.595 230.551 271.171 222.627 271.171 214.052V86.629C271.171 78.0538 266.595 70.13 259.169 65.8432L148.783 2.12701C141.359 -2.15855 132.212 -2.15854 124.787 2.12702L14.4018 65.8432C6.97501 70.13 2.39972 78.0538 2.39972 86.629V214.052C2.39972 222.627 6.97501 230.551 14.4018 234.837L124.787 298.554C132.212 302.839 141.359 302.839 148.783 298.554L259.169 234.837Z" fill="black" fill-opacity="0.12"/>
<path fill-rule="evenodd" clip-rule="evenodd" d="M587.937 214.052C587.937 222.627 583.361 230.551 575.935 234.837L465.549 298.554C458.124 302.839 448.978 302.839 441.553 298.554L331.168 234.837C323.741 230.551 319.166 222.627 319.166 214.052V86.629C319.166 78.0538 323.741 70.13 331.168 65.8432L441.553 2.12702C448.978 -2.15854 458.124 -2.15855 465.549 2.12701L575.935 65.8432C583.361 70.13 587.937 78.0537 587.937 86.629V214.052ZM549.541 196.464C549.541 202.195 546.476 207.489 541.505 210.341L460.316 256.939C455.383 259.77 449.319 259.77 444.387 256.939L363.197 210.341C358.227 207.489 355.162 202.195 355.162 196.464V103.433C355.162 97.7018 358.227 92.4085 363.197 89.5558L444.387 42.958C449.319 40.1271 455.383 40.1271 460.316 42.958L541.505 89.5558C546.476 92.4085 549.541 97.7018 549.541 103.433V196.464Z" fill="black" fill-opacity="0.12"/>
<path d="M892.7 234.837C900.127 230.551 904.702 222.627 904.702 214.052V86.629C904.702 78.0538 900.127 70.13 892.7 65.8432L782.315 2.12701C774.89 -2.15855 765.744 -2.15854 758.319 2.12702L647.934 65.8432C640.507 70.13 635.931 78.0538 635.931 86.629V214.052C635.931 222.627 640.507 230.551 647.934 234.837L758.319 298.554C765.744 302.839 774.89 302.839 782.315 298.554L892.7 234.837Z" fill="black" fill-opacity="0.12"/>
<path fill-rule="evenodd" clip-rule="evenodd" d="M1221.47 214.052C1221.47 222.627 1216.89 230.551 1209.47 234.837L1099.08 298.554C1091.66 302.839 1082.51 302.839 1075.08 298.554L964.699 234.837C957.273 230.551 952.697 222.627 952.697 214.052V86.629C952.697 78.0538 957.273 70.13 964.699 65.8432L1075.08 2.12702C1082.51 -2.15854 1091.66 -2.15855 1099.08 2.12701L1209.47 65.8432C1216.89 70.13 1221.47 78.0537 1221.47 86.629V214.052ZM1183.07 196.464C1183.07 202.195 1180.01 207.489 1175.04 210.341L1093.85 256.939C1088.92 259.77 1082.85 259.77 1077.92 256.939L996.729 210.341C991.759 207.489 988.693 202.195 988.693 196.464V103.433C988.693 97.7018 991.759 92.4085 996.729 89.5558L1077.92 42.958C1082.85 40.1271 1088.92 40.1271 1093.85 42.958L1175.04 89.5558C1180.01 92.4085 1183.07 97.7018 1183.07 103.433V196.464Z" fill="black" fill-opacity="0.12"/>
<path d="M1526.23 234.837C1533.66 230.551 1538.23 222.627 1538.23 214.052V86.629C1538.23 78.0538 1533.66 70.13 1526.23 65.8432L1415.85 2.12701C1408.42 -2.15855 1399.28 -2.15854 1391.85 2.12702L1281.47 65.8432C1274.04 70.13 1269.46 78.0538 1269.46 86.629V214.052C1269.46 222.627 1274.04 230.551 1281.47 234.837L1391.85 298.554C1399.28 302.839 1408.42 302.839 1415.85 298.554L1526.23 234.837Z" fill="black" fill-opacity="0.12"/>
<path d="M1843 234.837C1850.42 230.551 1855 222.627 1855 214.052V86.629C1855 78.0538 1850.42 70.13 1843 65.8432L1732.61 2.12701C1725.19 -2.15855 1716.04 -2.15854 1708.62 2.12702L1598.23 65.8432C1590.8 70.13 1586.23 78.0538 1586.23 86.629V214.052C1586.23 222.627 1590.8 230.551 1598.23 234.837L1708.62 298.554C1716.04 302.839 1725.19 302.839 1732.61 298.554L1843 234.837Z" fill="black" fill-opacity="0.12"/>
<path d="M417.552 511.526C424.978 507.239 429.554 499.316 429.554 490.74V363.318C429.554 354.742 424.978 346.819 417.552 342.532L307.166 278.816C299.742 274.53 290.595 274.53 283.17 278.816L172.785 342.532C165.358 346.819 160.783 354.742 160.783 363.318V490.74C160.783 499.316 165.358 507.239 172.785 511.526L283.17 575.242C290.595 579.528 299.742 579.528 307.166 575.242L417.552 511.526Z" fill="black" fill-opacity="0.12"/>
<path d="M734.317 511.526C741.744 507.239 746.32 499.316 746.32 490.74V363.318C746.32 354.742 741.744 346.819 734.317 342.532L623.932 278.816C616.507 274.53 607.361 274.53 599.936 278.816L489.551 342.532C482.124 346.819 477.549 354.742 477.549 363.318V490.74C477.549 499.316 482.124 507.239 489.551 511.526L599.936 575.242C607.361 579.528 616.507 579.528 623.932 575.242L734.317 511.526Z" fill="black" fill-opacity="0.12"/>
<path fill-rule="evenodd" clip-rule="evenodd" d="M1063.09 490.74C1063.09 499.316 1058.51 507.239 1051.08 511.526L940.698 575.242C933.273 579.528 924.127 579.528 916.702 575.242L806.317 511.526C798.89 507.239 794.314 499.316 794.314 490.74V363.318C794.314 354.742 798.89 346.819 806.316 342.532L916.702 278.816C924.127 274.53 933.273 274.53 940.698 278.816L1051.08 342.532C1058.51 346.819 1063.09 354.742 1063.09 363.318V490.74ZM1024.69 473.153C1024.69 478.884 1021.62 484.177 1016.65 487.03L935.465 533.628C930.532 536.459 924.468 536.459 919.536 533.628L838.346 487.03C833.376 484.177 830.311 478.884 830.311 473.153V380.121C830.311 374.39 833.376 369.097 838.346 366.245L919.536 319.647C924.468 316.816 930.532 316.816 935.465 319.647L1016.65 366.245C1021.62 369.097 1024.69 374.39 1024.69 380.121V473.153Z" fill="black" fill-opacity="0.12"/>
<path d="M1367.85 511.526C1375.28 507.239 1379.85 499.316 1379.85 490.74V363.318C1379.85 354.742 1375.28 346.819 1367.85 342.532L1257.46 278.816C1250.04 274.53 1240.89 274.53 1233.47 278.816L1123.08 342.532C1115.66 346.819 1111.08 354.742 1111.08 363.318V490.74C1111.08 499.316 1115.66 507.239 1123.08 511.526L1233.47 575.242C1240.89 579.528 1250.04 579.528 1257.46 575.242L1367.85 511.526Z" fill="black" fill-opacity="0.12"/>
<path d="M1684.62 511.526C1692.04 507.239 1696.62 499.316 1696.62 490.74V363.318C1696.62 354.742 1692.04 346.819 1684.62 342.532L1574.23 278.816C1566.8 274.53 1557.66 274.53 1550.23 278.816L1439.85 342.532C1432.42 346.819 1427.85 354.742 1427.85 363.318V490.74C1427.85 499.316 1432.42 507.239 1439.85 511.526L1550.23 575.242C1557.66 579.528 1566.8 579.528 1574.23 575.242L1684.62 511.526Z" fill="black" fill-opacity="0.12"/>
</g>
</g>
<defs>
<linearGradient id="paint0_linear_810_2138" x1="928.7" y1="-225.175" x2="928.7" y2="572.43" gradientUnits="userSpaceOnUse">
<stop/>
<stop offset="1" stop-opacity="0"/>
</linearGradient>
<clipPath id="clip0_810_2138">
<rect width="1855" height="583" fill="white"/>
</clipPath>
</defs>
</svg>
