<svg width="258" height="41" viewBox="0 0 258 41" fill="none" xmlns="http://www.w3.org/2000/svg">
<path d="M8.53361 8.82852C8.30128 10.5609 8.51587 12.3467 9.50812 13.7055C10.0809 14.49 10.8569 15.1014 11.6637 15.6304C12.188 15.9749 12.7366 16.2742 13.269 16.6123L12.8883 16.5395C12.9496 16.5427 12.9673 16.5475 13.0012 16.5508C13.6337 16.6139 14.2823 16.8177 14.7437 17.2884C15.2084 17.7413 15.4278 18.4013 15.4568 19.0337C15.5246 19.5595 15.8505 20.1871 16.2184 20.5365C16.9396 21.287 17.7931 20.8001 18.5223 20.3812C19.1629 19.9784 19.8679 19.5465 20.1745 18.8882C20.1793 18.8801 20.1793 18.8768 20.1793 18.8768C20.1826 18.872 20.1793 18.8882 20.1793 18.8882C20.1793 18.8946 20.1793 18.8914 20.1761 18.9124C20.1584 18.969 20.2068 19.2958 20.2148 19.3686C19.6179 16.7093 17.4881 7.06375 19.4823 5.25208L19.7276 6.76288C19.4452 6.53642 19.129 6.30511 18.8192 6.08512C17.8721 5.44295 16.9138 4.75548 15.7924 4.4627C16.9847 4.28477 18.2093 4.55652 19.3791 4.7846C19.776 4.87195 20.16 4.9593 20.5698 5.07414L20.815 6.58495C20.8715 6.53804 20.8554 6.55745 20.8473 6.61892C20.7263 7.41153 20.8473 8.25104 20.9457 9.08086C21.3281 11.7563 21.9589 14.4447 22.5914 17.083C22.6156 17.1703 23.0222 18.8138 23.0335 18.8542C23.0303 18.9448 23.0286 19.1842 23.0173 19.2295C22.7479 21.0622 21.0603 22.3336 19.5582 23.1133C16.3587 24.8764 13.3723 22.6425 13.2238 19.1987C13.2206 19.0774 13.2368 18.914 13.2319 18.7976C13.2319 18.686 13.0512 18.6035 12.9383 18.5841C12.9157 18.5824 12.8947 18.5776 12.877 18.5841C12.877 18.5857 12.8608 18.5873 12.8883 18.5905C12.8899 18.5905 12.5091 18.5177 12.5091 18.5177C10.5165 18.0309 8.59331 16.6074 7.75272 14.6712C6.8976 12.7301 7.20254 10.4299 8.532 8.83013L8.53361 8.82852Z" fill="#4741A6"/>
<path d="M20.5536 3.73322C16.6508 2.01699 12.9028 1.58995 8.98214 3.44368C4.78885 5.41388 2.10733 10.3507 2.7882 14.9462C3.32708 18.9513 6.52328 21.96 9.96472 23.7603C10.4197 24.0224 11.1151 24.3184 11.5894 24.5546C13.3481 25.3876 15.0389 26.3339 16.6153 27.5066C18.6934 29.0854 20.8215 31.2092 21.1716 33.9413C21.3394 35.3114 20.8989 36.7251 19.9889 37.6196C20.5569 36.5391 20.623 35.2628 20.2406 34.1403C19.442 31.9177 17.4026 30.4635 15.4375 29.2714C13.8789 28.3526 12.2284 27.5907 10.5552 26.9016C9.3371 26.4115 8.14961 25.847 7.0186 25.1708C1.24253 21.761 -1.5858 15.6013 0.911782 9.14075C2.96245 3.77043 8.23674 -0.04056 14.0628 0.562793C16.4797 0.858807 18.9693 1.81802 20.5536 3.73322Z" fill="#4741A6"/>
<path d="M22.0817 7.41316C22.0817 7.41316 21.7832 9.46424 22.3802 10.7696C22.3802 10.7696 23.2853 10.7696 24.0243 10.2099C24.0243 10.2099 24.0243 7.78682 23.7258 7.22714C23.7258 7.22714 22.5302 6.85348 22.0817 7.41316Z" fill="#4741A6"/>
<path d="M25.0293 7.03949C25.0293 7.03949 24.7872 8.62633 25.2713 9.63731C25.2713 9.63731 26.0054 9.63731 26.604 9.2038C26.604 9.2038 26.604 7.32742 26.3619 6.89553C26.3619 6.89553 25.3923 6.6076 25.0293 7.03949Z" fill="#4741A6"/>
<path d="M27.7303 6.72886C27.7303 6.72886 27.5318 7.91292 27.9287 8.66671C27.9287 8.66671 28.5321 8.66671 29.0242 8.34319C29.0242 8.34319 29.0242 6.944 28.8258 6.6221C28.8258 6.6221 28.0288 6.40696 27.7303 6.73048V6.72886Z" fill="#4741A6"/>
<path d="M29.9535 6.47499C29.9535 6.47499 29.7744 7.31936 30.1326 7.85801C30.1326 7.85801 30.6763 7.85801 31.1216 7.62831C31.1216 7.62831 31.1216 6.63027 30.9425 6.39896C30.9425 6.39896 30.2229 6.24529 29.9535 6.47499Z" fill="#4741A6"/>
<path d="M32.1509 6.22265C32.1509 6.22265 32.0654 6.69336 32.3106 7.0007C32.5543 7.30804 34.5097 6.08031 34.5097 6.08031C34.5097 6.08031 32.9689 6.06089 32.1509 6.22427V6.22265Z" fill="#4741A6"/>
<path d="M16.4393 32.1213C18.5594 33.2763 19.5371 36.1394 17.8511 38.1063C16.6281 39.5055 14.7001 39.9487 12.9576 40.1299C9.67424 40.4227 6.04887 39.9584 3.32056 37.964C1.84266 36.8479 1.08113 34.9019 1.15534 33.0838C1.22795 31.6943 1.74102 30.4035 2.40252 29.2097C1.883 30.7982 1.61033 32.6438 2.34928 34.1854C2.80265 35.1332 3.65132 35.7334 4.5145 36.2558C7.26539 37.909 10.8133 37.8233 13.895 37.3898C14.7469 37.2328 15.6988 36.9789 16.2425 36.3804C17.0734 35.2788 16.5684 33.4688 16.4393 32.1213Z" fill="#F9CE69"/>
<path d="M42.572 20.4147V0.83564H51.5349C53.6769 0.83564 55.5653 1.24587 57.2001 2.06633C58.8348 2.86814 60.1125 3.99626 61.0332 5.45071C61.954 6.90516 62.4143 8.62998 62.4143 10.6252C62.4143 12.6017 61.954 14.3266 61.0332 15.7997C60.1125 17.2541 58.8348 18.3916 57.2001 19.212C55.5653 20.0138 53.6769 20.4147 51.5349 20.4147H42.572ZM47.138 16.6947H51.3094C52.6247 16.6947 53.7615 16.4523 54.7198 15.9675C55.6969 15.464 56.4485 14.7554 56.9746 13.8417C57.5195 12.9281 57.792 11.8559 57.792 10.6252C57.792 9.37585 57.5195 8.30366 56.9746 7.40862C56.4485 6.49493 55.6969 5.79568 54.7198 5.31086C53.7615 4.8074 52.6247 4.55567 51.3094 4.55567H47.138V16.6947Z" fill="#4741A6"/>
<path d="M89.0492 8.72322H98.5476V12.2475H89.0492V8.72322ZM89.3874 16.7786H100.126V20.4147H84.8496V0.83564H99.7595V4.47176H89.3874V16.7786Z" fill="#4741A6"/>
<path d="M130.087 20.7504C128.508 20.7504 126.996 20.5453 125.549 20.135C124.102 19.7062 122.937 19.1561 122.054 18.4848L123.604 15.0724C124.45 15.6691 125.446 16.1633 126.592 16.5548C127.757 16.9278 128.931 17.1143 130.115 17.1143C131.017 17.1143 131.74 17.0303 132.285 16.8625C132.849 16.6761 133.262 16.4243 133.525 16.1073C133.788 15.7903 133.92 15.4267 133.92 15.0165C133.92 14.4944 133.713 14.0842 133.3 13.7858C132.886 13.4688 132.341 13.2171 131.665 13.0306C130.989 12.8255 130.237 12.639 129.41 12.4712C128.602 12.2847 127.785 12.061 126.958 11.7999C126.15 11.5389 125.408 11.2032 124.731 10.793C124.055 10.3828 123.501 9.84202 123.069 9.17074C122.655 8.49945 122.448 7.6417 122.448 6.59749C122.448 5.47868 122.749 4.46243 123.35 3.54874C123.97 2.6164 124.891 1.87986 126.113 1.3391C127.353 0.779701 128.903 0.5 130.763 0.5C132.003 0.5 133.225 0.649174 134.427 0.947521C135.63 1.22722 136.691 1.6561 137.612 2.23415L136.203 5.67447C135.282 5.15236 134.361 4.77011 133.441 4.5277C132.52 4.26664 131.618 4.13612 130.735 4.13612C129.852 4.13612 129.128 4.23867 128.565 4.44379C128.001 4.6489 127.597 4.91928 127.353 5.25492C127.108 5.57191 126.986 5.94485 126.986 6.37372C126.986 6.87719 127.193 7.28742 127.606 7.60441C128.02 7.90276 128.565 8.14517 129.241 8.33163C129.918 8.5181 130.66 8.70457 131.468 8.89104C132.294 9.0775 133.112 9.29194 133.92 9.53435C134.747 9.77676 135.498 10.1031 136.175 10.5133C136.851 10.9235 137.396 11.4643 137.809 12.1356C138.242 12.8069 138.458 13.6553 138.458 14.6809C138.458 15.781 138.148 16.7879 137.528 17.7016C136.907 18.6153 135.977 19.3519 134.737 19.9113C133.516 20.4707 131.966 20.7504 130.087 20.7504Z" fill="#4741A6"/>
<path d="M171.725 0.602557L180.237 20.1816H175.305L167.864 2.84017H170.767L163.213 20.1816H158.676L167.216 0.602557H171.725Z" fill="#4741A6"/>
<path d="M206.017 20.4147V12.4153L207.06 15.1563L198.379 0.83564H203.227L209.879 11.8279H207.088L213.768 0.83564H218.25L209.569 15.1563L210.583 12.4153V20.4147H206.017Z" fill="#4741A6"/>
<path d="M239.867 20.4147V0.83564H243.644L255.285 14.9326H253.453V0.83564H257.962V20.4147H254.214L242.545 6.31779H244.377V20.4147H239.867Z" fill="#4741A6"/>
<path d="M46.7124 40.5C45.3574 40.5 44.2922 40.1122 43.5165 39.3365C42.7409 38.5609 42.353 37.4269 42.353 35.9345V30.0729H43.8258V35.8755C43.8258 37.0243 44.0761 37.8638 44.5769 38.394C45.0874 38.9242 45.8042 39.1892 46.7271 39.1892C47.6599 39.1892 48.3766 38.9242 48.8773 38.394C49.3879 37.8638 49.6432 37.0243 49.6432 35.8755V30.0729H51.0717V35.9345C51.0717 37.4269 50.6839 38.5609 49.9083 39.3365C49.1424 40.1122 48.0771 40.5 46.7124 40.5Z" fill="#4741A6" fill-opacity="0.4"/>
<path d="M57.773 40.3822V30.0729H59.2457V40.3822H57.773Z" fill="#4741A6" fill-opacity="0.4"/>
<path d="M70.2851 40.5C68.9301 40.5 67.8648 40.1122 67.0892 39.3365C66.3135 38.5609 65.9257 37.4269 65.9257 35.9345V30.0729H67.3985V35.8755C67.3985 37.0243 67.6488 37.8638 68.1496 38.394C68.6601 38.9242 69.3769 39.1892 70.2998 39.1892C71.2325 39.1892 71.9493 38.9242 72.45 38.394C72.9606 37.8638 73.2159 37.0243 73.2159 35.8755V30.0729H74.6444V35.9345C74.6444 37.4269 74.2566 38.5609 73.481 39.3365C72.7151 40.1122 71.6498 40.5 70.2851 40.5Z" fill="#4741A6" fill-opacity="0.4"/>
<path d="M79.8469 40.3822L84.1326 34.5353V35.6694L80.0826 30.0729H81.7615L84.9721 34.4764L84.3094 34.4912L87.5053 30.0729H89.1106L85.0899 35.581V34.5206L89.3757 40.3822H87.682L84.2652 35.6841H84.9132L81.5406 40.3822H79.8469Z" fill="#4741A6" fill-opacity="0.4"/>
<path d="M109.01 34.8593C109.01 33.8426 109.834 33.0184 110.851 33.0184C111.868 33.0184 112.692 33.8426 112.692 34.8593C112.692 35.8761 111.868 36.7003 110.851 36.7003C109.834 36.7003 109.01 35.8761 109.01 34.8593Z" fill="#4741A6" fill-opacity="0.4"/>
<path d="M132.648 40.3822V30.0729H136.992C138.092 30.0729 139.059 30.2889 139.894 30.7209C140.738 31.1529 141.391 31.7567 141.852 32.5324C142.324 33.308 142.559 34.2064 142.559 35.2275C142.559 36.2486 142.324 37.147 141.852 37.9227C141.391 38.6983 140.738 39.3022 139.894 39.7342C139.059 40.1662 138.092 40.3822 136.992 40.3822H132.648ZM134.12 39.1009H136.904C137.758 39.1009 138.494 38.9389 139.113 38.6149C139.741 38.2909 140.227 37.8392 140.571 37.2599C140.915 36.6708 141.086 35.9934 141.086 35.2275C141.086 34.4519 140.915 33.7744 140.571 33.1951C140.227 32.6159 139.741 32.1642 139.113 31.8402C138.494 31.5162 137.758 31.3542 136.904 31.3542H134.12V39.1009Z" fill="#4741A6" fill-opacity="0.4"/>
<path d="M149.837 34.5206H155.139V35.7725H149.837V34.5206ZM149.97 39.1009H155.979V40.3822H148.497V30.0729H155.772V31.3542H149.97V39.1009Z" fill="#4741A6" fill-opacity="0.4"/>
<path d="M164.876 40.3822L160.34 30.0729H161.931L166.099 39.5869H165.186L169.383 30.0729H170.856L166.334 40.3822H164.876Z" fill="#4741A6" fill-opacity="0.4"/>
<path d="M177.192 34.5206H182.494V35.7725H177.192V34.5206ZM177.325 39.1009H183.334V40.3822H175.852V30.0729H183.128V31.3542H177.325V39.1009Z" fill="#4741A6" fill-opacity="0.4"/>
<path d="M189.4 40.3822V30.0729H190.873V39.1009H196.455V40.3822H189.4Z" fill="#4741A6" fill-opacity="0.4"/>
<path d="M206.294 40.5C205.508 40.5 204.777 40.3674 204.099 40.1024C203.432 39.8373 202.852 39.4691 202.361 38.9978C201.871 38.5167 201.488 37.957 201.213 37.3188C200.938 36.6807 200.8 35.9836 200.8 35.2275C200.8 34.4715 200.938 33.7744 201.213 33.1362C201.488 32.498 201.871 31.9433 202.361 31.472C202.852 30.9909 203.432 30.6178 204.099 30.3527C204.767 30.0876 205.498 29.9551 206.294 29.9551C207.079 29.9551 207.801 30.0876 208.459 30.3527C209.126 30.608 209.706 30.9762 210.196 31.4573C210.697 31.9286 211.08 32.4833 211.345 33.1215C211.62 33.7597 211.758 34.4617 211.758 35.2275C211.758 35.9934 211.62 36.6954 211.345 37.3336C211.08 37.9718 210.697 38.5314 210.196 39.0125C209.706 39.4838 209.126 39.852 208.459 40.1171C207.801 40.3724 207.079 40.5 206.294 40.5ZM206.294 39.1892C206.863 39.1892 207.388 39.0911 207.87 38.8947C208.36 38.6983 208.783 38.4234 209.136 38.07C209.499 37.7067 209.779 37.2845 209.976 36.8034C210.182 36.3223 210.285 35.797 210.285 35.2275C210.285 34.6581 210.182 34.1328 209.976 33.6517C209.779 33.1706 209.499 32.7533 209.136 32.3998C208.783 32.0366 208.36 31.7567 207.87 31.5604C207.388 31.364 206.863 31.2658 206.294 31.2658C205.714 31.2658 205.179 31.364 204.688 31.5604C204.207 31.7567 203.785 32.0366 203.422 32.3998C203.059 32.7533 202.774 33.1706 202.568 33.6517C202.371 34.1328 202.273 34.6581 202.273 35.2275C202.273 35.797 202.371 36.3223 202.568 36.8034C202.774 37.2845 203.059 37.7067 203.422 38.07C203.785 38.4234 204.207 38.6983 204.688 38.8947C205.179 39.0911 205.714 39.1892 206.294 39.1892Z" fill="#4741A6" fill-opacity="0.4"/>
<path d="M217.69 40.3822V30.0729H221.711C222.614 30.0729 223.385 30.2153 224.023 30.5C224.662 30.7847 225.152 31.1971 225.496 31.7371C225.84 32.2771 226.012 32.9202 226.012 33.6664C226.012 34.4126 225.84 35.0557 225.496 35.5957C225.152 36.1259 224.662 36.5383 224.023 36.8328C223.385 37.1176 222.614 37.2599 221.711 37.2599H218.501L219.163 36.5677V40.3822H217.69ZM219.163 36.715L218.501 35.9786H221.667C222.609 35.9786 223.321 35.7774 223.802 35.3748C224.293 34.9723 224.539 34.4028 224.539 33.6664C224.539 32.93 224.293 32.3606 223.802 31.958C223.321 31.5555 222.609 31.3542 221.667 31.3542H218.501L219.163 30.6178V36.715Z" fill="#4741A6" fill-opacity="0.4"/>
<path d="M233.197 34.5206H238.499V35.7725H233.197V34.5206ZM233.33 39.1009H239.339V40.3822H231.857V30.0729H239.133V31.3542H233.33V39.1009Z" fill="#4741A6" fill-opacity="0.4"/>
<path d="M245.405 40.3822V30.0729H249.426C250.329 30.0729 251.1 30.2153 251.738 30.5C252.376 30.7847 252.867 31.1971 253.211 31.7371C253.555 32.2771 253.726 32.9202 253.726 33.6664C253.726 34.4126 253.555 35.0557 253.211 35.5957C252.867 36.1259 252.376 36.5334 251.738 36.8181C251.1 37.1028 250.329 37.2452 249.426 37.2452H246.215L246.878 36.5677V40.3822H245.405ZM252.298 40.3822L249.676 36.6414H251.252L253.903 40.3822H252.298ZM246.878 36.715L246.215 35.9934H249.382C250.324 35.9934 251.036 35.7921 251.517 35.3895C252.008 34.9772 252.254 34.4028 252.254 33.6664C252.254 32.93 252.008 32.3606 251.517 31.958C251.036 31.5555 250.324 31.3542 249.382 31.3542H246.215L246.878 30.6178V36.715Z" fill="#4741A6" fill-opacity="0.4"/>
</svg>
