<svg width="62" height="72" viewBox="0 0 62 72" fill="none" xmlns="http://www.w3.org/2000/svg">
<path d="M4.21741 12.0372C4.21741 12.0372 -2.42935 27.9555 2.05275 47.5831C6.53186 67.2005 31.1404 71.9959 31.1637 72.0001H31.1643C31.1882 71.9959 55.7974 67.2005 60.2759 47.5831C64.7574 27.9555 58.1118 12.0372 58.1118 12.0372L31.1643 4.61877L4.21741 12.0372Z" fill="#D6A84C"/>
<path opacity="0.8" d="M4.21741 7.98887C4.21741 7.98887 -2.42935 23.9072 2.05275 43.5347C6.53186 63.1527 31.1404 67.9475 31.1637 67.9523H31.1643C31.1882 67.9475 55.7974 63.1527 60.2759 43.5347C64.7574 23.9072 58.1118 7.98887 58.1118 7.98887L31.1643 0.570435L4.21741 7.98887Z" fill="white"/>
<path d="M4.21741 7.41844C4.21741 7.41844 -2.42935 23.3368 2.05275 42.9637C6.53186 62.5817 31.1404 67.3771 31.1637 67.3813H31.1643C31.1882 67.3771 55.7974 62.5817 60.2759 42.9637C64.7574 23.3368 58.1118 7.41844 58.1118 7.41844L31.1643 0L4.21741 7.41844Z" fill="#FBDE8E"/>
<path d="M31.1643 60.925C26.6792 59.7356 11.1769 54.714 8.17432 41.5661C5.25111 28.7631 7.64196 17.58 9.09998 12.5876L31.1643 6.51318L53.2298 12.5876C54.6849 17.568 57.0787 28.7566 54.1543 41.5661C51.1523 54.7134 35.6494 59.735 31.1643 60.925Z" fill="#F9CE69"/>
<path d="M8.13909 16.7103L31.1643 10.6359L54.1907 16.7103C54.2582 16.9317 54.3274 17.1698 54.399 17.4151C54.0159 15.4659 53.5933 13.833 53.2298 12.5881L31.1643 6.51367L9.09998 12.5881C8.73532 13.836 8.31277 15.4707 7.92902 17.4205C8.00063 17.1728 8.07105 16.9335 8.13909 16.7103Z" fill="#D6A84C"/>
<path d="M23 40.5L24.4837 30L30.4182 24L37.8363 31.5L33.3854 36L39.32 42L30.4182 48L23 40.5Z" fill="#0AB79A"/>
</svg>
