<svg width="62" height="72" viewBox="0 0 62 72" fill="none" xmlns="http://www.w3.org/2000/svg">
<path d="M4.21741 12.0371C4.21741 12.0371 -2.42935 27.9554 2.05275 47.583C6.53186 67.2003 31.1404 71.9958 31.1637 71.9999H31.1643C31.1882 71.9958 55.7974 67.2003 60.2759 47.583C64.7574 27.9554 58.1118 12.0371 58.1118 12.0371L31.1643 4.61865L4.21741 12.0371Z" fill="#D6A84C"/>
<path opacity="0.8" d="M4.21741 7.98899C4.21741 7.98899 -2.42935 23.9073 2.05275 43.5349C6.53186 63.1528 31.1404 67.9477 31.1637 67.9524H31.1643C31.1882 67.9477 55.7974 63.1528 60.2759 43.5349C64.7574 23.9073 58.1118 7.98899 58.1118 7.98899L31.1643 0.570557L4.21741 7.98899Z" fill="white"/>
<path d="M4.21741 7.41844C4.21741 7.41844 -2.42935 23.3368 2.05275 42.9637C6.53186 62.5817 31.1404 67.3771 31.1637 67.3813H31.1643C31.1882 67.3771 55.7974 62.5817 60.2759 42.9637C64.7574 23.3368 58.1118 7.41844 58.1118 7.41844L31.1643 0L4.21741 7.41844Z" fill="#FBDE8E"/>
<path d="M31.1643 60.925C26.6792 59.7356 11.1769 54.714 8.17431 41.5661C5.25109 28.7631 7.64194 17.58 9.09997 12.5876L31.1643 6.51318L53.2298 12.5876C54.6849 17.568 57.0787 28.7566 54.1543 41.5661C51.1523 54.7134 35.6494 59.735 31.1643 60.925Z" fill="#F9CE69"/>
<path d="M8.13909 16.7103L31.1643 10.6359L54.1907 16.7103C54.2582 16.9317 54.3274 17.1698 54.399 17.4151C54.0159 15.4659 53.5933 13.833 53.2298 12.5881L31.1643 6.51367L9.09998 12.5881C8.73532 13.836 8.31277 15.4707 7.92902 17.4205C8.00063 17.1728 8.07105 16.9335 8.13909 16.7103Z" fill="#D6A84C"/>
<path d="M45.6667 20H15L17.7059 48.6316L30.3333 52L42.9608 48.6316L45.6667 20Z" fill="#0277BD"/>
<path d="M31 21.3333V50.6666L40.8102 47.7241L43 21.3333H31Z" fill="#039BE5"/>
<path d="M37.6667 26.6667H31V30.0453H34.5897L34.37 33.4239H31V36.8025H34.2234L34.0037 40.6034L31 41.7859V45.3334L36.7875 43.1373L37.3004 33.4239L37.6667 26.6667Z" fill="white"/>
<path d="M31 26.6667V30.0453H23.2609L23 26.6667H31ZM27 33.4239L27.1739 36.8025H31V33.4239H27ZM27.3478 38.4918H23.8696L24.1304 43.1373L31 45.3334V41.7859L27.4348 40.6034L27.3478 38.4918Z" fill="#EEEEEE"/>
</svg>
