<svg width="62" height="72" viewBox="0 0 62 72" fill="none" xmlns="http://www.w3.org/2000/svg">
<path d="M3.71741 12.0372C3.71741 12.0372 -2.92935 27.9555 1.55275 47.5831C6.03186 67.2005 30.6404 71.9959 30.6637 72.0001H30.6643C30.6882 71.9959 55.2974 67.2005 59.7759 47.5831C64.2574 27.9555 57.6118 12.0372 57.6118 12.0372L30.6643 4.61877L3.71741 12.0372Z" fill="#D6A84C"/>
<path opacity="0.8" d="M3.71741 7.98887C3.71741 7.98887 -2.92935 23.9072 1.55275 43.5347C6.03186 63.1527 30.6404 67.9475 30.6637 67.9523H30.6643C30.6882 67.9475 55.2974 63.1527 59.7759 43.5347C64.2574 23.9072 57.6118 7.98887 57.6118 7.98887L30.6643 0.570435L3.71741 7.98887Z" fill="white"/>
<path d="M3.71741 7.41844C3.71741 7.41844 -2.92935 23.3368 1.55275 42.9637C6.03186 62.5817 30.6404 67.3771 30.6637 67.3813H30.6643C30.6882 67.3771 55.2974 62.5817 59.7759 42.9637C64.2574 23.3368 57.6118 7.41844 57.6118 7.41844L30.6643 0L3.71741 7.41844Z" fill="#FBDE8E"/>
<path d="M30.6643 60.925C26.1792 59.7356 10.6769 54.714 7.67432 41.5661C4.75111 28.7631 7.14196 17.58 8.59998 12.5876L30.6643 6.51318L52.7298 12.5876C54.1849 17.568 56.5787 28.7566 53.6543 41.5661C50.6523 54.7134 35.1494 59.735 30.6643 60.925Z" fill="#F9CE69"/>
<path d="M7.63909 16.7103L30.6643 10.6359L53.6907 16.7103C53.7582 16.9317 53.8274 17.1698 53.899 17.4151C53.5159 15.4659 53.0933 13.833 52.7298 12.5881L30.6643 6.51367L8.59998 12.5881C8.23532 13.836 7.81277 15.4707 7.42902 17.4205C7.50063 17.1728 7.57105 16.9335 7.63909 16.7103Z" fill="#D6A84C"/>
<path d="M31 21.28C29.5843 21.28 28.44 22.4243 28.44 23.84C28.44 24.0446 28.4711 24.2407 28.5162 24.4313L22.005 27.8788C21.5371 27.3665 20.8698 27.04 20.12 27.04C18.7043 27.04 17.56 28.1843 17.56 29.6C17.56 30.7873 18.3769 31.7824 19.48 32.0688V39.9313C18.3769 40.2163 17.56 41.2069 17.56 42.4C17.56 43.8087 18.7043 44.96 20.12 44.96C20.8698 44.96 21.5371 44.6336 22.005 44.1213L28.5162 47.5688C28.4711 47.7594 28.44 47.9554 28.44 48.16C28.44 49.5757 29.5843 50.72 31 50.72C32.4157 50.72 33.56 49.5687 33.56 48.16C33.56 47.9554 33.5289 47.7594 33.4837 47.5688L39.995 44.1213C40.4629 44.6336 41.1302 44.96 41.88 44.96C43.2957 44.96 44.44 43.8087 44.44 42.4C44.44 41.2069 43.6231 40.2163 42.52 39.9313V32.0688C43.6231 31.7824 44.44 30.7873 44.44 29.6C44.44 28.1843 43.2957 27.04 41.88 27.04C41.1302 27.04 40.4629 27.3665 39.995 27.8788L33.4837 24.4313C33.5292 24.2407 33.56 24.0442 33.56 23.84C33.56 22.4243 32.4157 21.28 31 21.28ZM29.115 25.5613C29.1426 25.5915 29.1648 25.6262 29.1937 25.655L20.815 39.9475C20.7964 39.9423 20.7787 39.9349 20.76 39.93V32.0688C21.8631 31.7838 22.68 30.7932 22.68 29.6C22.68 29.3954 22.6489 29.1994 22.6037 29.0088L29.115 25.5613ZM32.8837 25.5613L39.3962 29.0088C39.3511 29.1994 39.32 29.3954 39.32 29.6C39.32 30.7932 40.1369 31.7838 41.24 32.0688V39.93C41.2213 39.9349 41.2036 39.9423 41.185 39.9475L32.805 25.6538C32.8337 25.6252 32.8564 25.5912 32.8837 25.5613ZM31.695 26.2913L40.0737 40.585C39.754 40.9032 39.5277 41.3093 39.4112 41.76H22.5887C22.4723 41.3093 22.246 40.9032 21.9262 40.585L30.305 26.2925C30.5273 26.3554 30.7573 26.4 31 26.4C31.2427 26.4 31.4726 26.3545 31.695 26.2913ZM22.6962 43.04H39.3037L32.885 46.4388C32.4171 45.9265 31.7498 45.6 31 45.6C30.2502 45.6 29.5829 45.9265 29.115 46.4388L22.6962 43.04Z" fill="#E63CAE"/>
</svg>
