<svg width="62" height="72" viewBox="0 0 62 72" fill="none" xmlns="http://www.w3.org/2000/svg">
<path d="M3.71741 12.0371C3.71741 12.0371 -2.92935 27.9554 1.55275 47.583C6.03186 67.2003 30.6404 71.9958 30.6637 71.9999H30.6643C30.6882 71.9958 55.2974 67.2003 59.7759 47.583C64.2574 27.9554 57.6118 12.0371 57.6118 12.0371L30.6643 4.61865L3.71741 12.0371Z" fill="#D6A84C"/>
<path opacity="0.8" d="M3.71741 7.98899C3.71741 7.98899 -2.92935 23.9073 1.55275 43.5349C6.03186 63.1528 30.6404 67.9477 30.6637 67.9524H30.6643C30.6882 67.9477 55.2974 63.1528 59.7759 43.5349C64.2574 23.9073 57.6118 7.98899 57.6118 7.98899L30.6643 0.570557L3.71741 7.98899Z" fill="white"/>
<path d="M3.71741 7.41844C3.71741 7.41844 -2.92935 23.3368 1.55275 42.9637C6.03186 62.5817 30.6404 67.3771 30.6637 67.3813H30.6643C30.6882 67.3771 55.2974 62.5817 59.7759 42.9637C64.2574 23.3368 57.6118 7.41844 57.6118 7.41844L30.6643 0L3.71741 7.41844Z" fill="#FBDE8E"/>
<path d="M30.6643 60.925C26.1792 59.7356 10.6769 54.714 7.67432 41.5661C4.75111 28.7631 7.14196 17.58 8.59998 12.5876L30.6643 6.51318L52.7298 12.5876C54.1849 17.568 56.5787 28.7566 53.6543 41.5661C50.6523 54.7134 35.1494 59.735 30.6643 60.925Z" fill="#F9CE69"/>
<path d="M7.63909 16.7103L30.6643 10.6359L53.6907 16.7103C53.7582 16.9317 53.8274 17.1698 53.899 17.4151C53.5159 15.4659 53.0933 13.833 52.7298 12.5881L30.6643 6.51367L8.59998 12.5881C8.23532 13.836 7.81277 15.4707 7.42902 17.4205C7.50063 17.1728 7.57105 16.9335 7.63909 16.7103Z" fill="#D6A84C"/>
<g clip-path="url(#clip0_576_1370)">
<path d="M46 20H15.3333L18.0392 48.6316L30.6667 52L43.2941 48.6316L46 20Z" fill="#E65100"/>
<path d="M31.3333 21.3333V50.6666L41.1436 47.7241L43.3334 21.3333H31.3333Z" fill="#FF6D00"/>
<path d="M31.3333 36.917V33.0557H38.8116L38.2029 44.1568L31.3333 46.6666V42.6123L34.8986 41.2609L35.1594 36.917H31.3333ZM39.0725 29.1945L39.3333 25.3333H31.3333V29.1945H39.0725Z" fill="white"/>
<path d="M31.3333 42.6123V46.6666L23.2308 44.1568L22.8205 38.8476H26.9231L27.1282 41.2609L31.3333 42.6123ZM26.3077 29.1945H31.3333V25.3333H22L22.718 36.917H31.3333V33.0557H26.6154L26.3077 29.1945Z" fill="#EEEEEE"/>
</g>
<defs>
<clipPath id="clip0_576_1370">
<rect width="32" height="32" fill="white" transform="translate(14 20)"/>
</clipPath>
</defs>
</svg>
