<svg width="62" height="72" viewBox="0 0 62 72" fill="none" xmlns="http://www.w3.org/2000/svg">
<path d="M3.71741 12.0372C3.71741 12.0372 -2.92935 27.9555 1.55275 47.5831C6.03186 67.2005 30.6404 71.9959 30.6637 72.0001H30.6643C30.6882 71.9959 55.2974 67.2005 59.7759 47.5831C64.2574 27.9555 57.6118 12.0372 57.6118 12.0372L30.6643 4.61877L3.71741 12.0372Z" fill="#D6A84C"/>
<path opacity="0.8" d="M3.71741 7.98887C3.71741 7.98887 -2.92935 23.9072 1.55275 43.5347C6.03186 63.1527 30.6404 67.9475 30.6637 67.9523H30.6643C30.6882 67.9475 55.2974 63.1527 59.7759 43.5347C64.2574 23.9072 57.6118 7.98887 57.6118 7.98887L30.6643 0.570435L3.71741 7.98887Z" fill="white"/>
<path d="M3.71741 7.41844C3.71741 7.41844 -2.92935 23.3368 1.55275 42.9637C6.03186 62.5817 30.6404 67.3771 30.6637 67.3813H30.6643C30.6882 67.3771 55.2974 62.5817 59.7759 42.9637C64.2574 23.3368 57.6118 7.41844 57.6118 7.41844L30.6643 0L3.71741 7.41844Z" fill="#FBDE8E"/>
<path d="M30.6643 60.925C26.1792 59.7356 10.6769 54.714 7.67432 41.5661C4.75111 28.7631 7.14196 17.58 8.59998 12.5876L30.6643 6.51318L52.7298 12.5876C54.1849 17.568 56.5787 28.7566 53.6543 41.5661C50.6523 54.7134 35.1494 59.735 30.6643 60.925Z" fill="#F9CE69"/>
<path d="M7.63909 16.7103L30.6643 10.6359L53.6907 16.7103C53.7582 16.9317 53.8274 17.1698 53.899 17.4151C53.5159 15.4659 53.0933 13.833 52.7298 12.5881L30.6643 6.51367L8.59998 12.5881C8.23532 13.836 7.81277 15.4707 7.42902 17.4205C7.50063 17.1728 7.57105 16.9335 7.63909 16.7103Z" fill="#D6A84C"/>
<g clip-path="url(#clip0_863_2168)">
<path d="M15 52V20H47V52H15Z" fill="#FBF094"/>
<path d="M36.3692 44.2804C37.0205 45.4044 37.7283 46.4814 39.2275 46.4814C40.4868 46.4814 41.1475 45.8164 41.1475 44.8964C41.1475 43.7954 40.4642 43.4044 39.0788 42.7634L38.3193 42.4194C36.1273 41.4314 34.6695 40.1934 34.6695 37.5784C34.6695 35.1684 36.4059 33.3344 39.1193 33.3344C41.0515 33.3344 42.4397 34.0454 43.4411 35.9074L41.075 37.5144C40.5546 36.5264 39.9918 36.1374 39.1193 36.1374C38.229 36.1374 37.6652 36.7344 37.6652 37.5144C37.6652 38.4784 38.2299 38.8684 39.5334 39.4654L40.2929 39.8094C42.8764 40.9784 44.3333 42.1724 44.3333 44.8564C44.3333 47.7484 42.1837 49.3334 39.2981 49.3334C36.4756 49.3334 34.8728 47.8284 33.9805 45.9654L36.3692 44.2804ZM25.4649 44.3624C25.9411 45.2684 26.6649 45.9654 27.7058 45.9654C28.7016 45.9654 29.2747 45.5474 29.2747 43.9224V33.3334H32.4116V44.4344C32.4116 47.8014 30.5735 49.3334 27.8893 49.3334C25.464 49.3334 23.7134 47.5874 23 45.9654L25.4649 44.3624Z" fill="#000001"/>
</g>
<defs>
<clipPath id="clip0_863_2168">
<rect width="32" height="32" fill="white" transform="translate(15 20)"/>
</clipPath>
</defs>
</svg>
