<svg width="62" height="72" viewBox="0 0 62 72" fill="none" xmlns="http://www.w3.org/2000/svg">
<path d="M4.21741 12.0372C4.21741 12.0372 -2.42935 27.9555 2.05275 47.5831C6.53186 67.2005 31.1404 71.9959 31.1637 72.0001H31.1643C31.1882 71.9959 55.7974 67.2005 60.2759 47.5831C64.7574 27.9555 58.1118 12.0372 58.1118 12.0372L31.1643 4.61877L4.21741 12.0372Z" fill="#D6A84C"/>
<path opacity="0.8" d="M4.21741 7.98887C4.21741 7.98887 -2.42935 23.9072 2.05275 43.5347C6.53186 63.1527 31.1404 67.9475 31.1637 67.9523H31.1643C31.1882 67.9475 55.7974 63.1527 60.2759 43.5347C64.7574 23.9072 58.1118 7.98887 58.1118 7.98887L31.1643 0.570435L4.21741 7.98887Z" fill="white"/>
<path d="M4.21741 7.41844C4.21741 7.41844 -2.42935 23.3368 2.05275 42.9637C6.53186 62.5817 31.1404 67.3771 31.1637 67.3813H31.1643C31.1882 67.3771 55.7974 62.5817 60.2759 42.9637C64.7574 23.3368 58.1118 7.41844 58.1118 7.41844L31.1643 0L4.21741 7.41844Z" fill="#FBDE8E"/>
<path d="M31.1643 60.925C26.6792 59.7356 11.1769 54.714 8.17432 41.5661C5.25111 28.7631 7.64196 17.58 9.09998 12.5876L31.1643 6.51318L53.2298 12.5876C54.6849 17.568 57.0787 28.7566 54.1543 41.5661C51.1523 54.7134 35.6494 59.735 31.1643 60.925Z" fill="#F9CE69"/>
<path d="M8.13909 16.7103L31.1643 10.6359L54.1907 16.7103C54.2582 16.9317 54.3274 17.1698 54.399 17.4151C54.0159 15.4659 53.5933 13.833 53.2298 12.5881L31.1643 6.51367L9.09998 12.5881C8.73532 13.836 8.31277 15.4707 7.92902 17.4205C8.00063 17.1728 8.07105 16.9335 8.13909 16.7103Z" fill="#D6A84C"/>
<g clip-path="url(#clip0_863_2234)">
<mask id="mask0_863_2234" style="mask-type:luminance" maskUnits="userSpaceOnUse" x="15" y="20" width="32" height="32">
<path d="M47 20H15V52H47V20Z" fill="white"/>
</mask>
<g mask="url(#mask0_863_2234)">
<path d="M29.9521 20.0086C29.8833 20.0149 29.6643 20.0368 29.4672 20.0524C24.9222 20.4621 20.6649 22.9141 17.9685 26.6829C16.4671 28.7784 15.5067 31.1553 15.1439 33.673C15.0156 34.5519 15 34.8115 15 36.0032C15 37.1948 15.0156 37.4544 15.1439 38.3332C16.0135 44.3413 20.2896 49.3893 26.089 51.2596C27.1275 51.5942 28.2223 51.8225 29.4672 51.9601C29.9521 52.0133 32.0479 52.0133 32.5327 51.9601C34.6817 51.7225 36.5023 51.1907 38.2978 50.2743C38.573 50.1336 38.6262 50.0961 38.5886 50.0648C38.5636 50.0461 37.3906 48.4729 35.983 46.5713L33.4242 43.1153L30.218 38.3707C28.4538 35.7623 27.0024 33.6293 26.9899 33.6293C26.9773 33.6262 26.9648 35.7341 26.9586 38.3081C26.9492 42.815 26.946 42.9965 26.8897 43.1028C26.8084 43.2561 26.7459 43.3186 26.6145 43.3874C26.5144 43.4374 26.4268 43.4468 25.9544 43.4468H25.4133L25.2694 43.3561C25.1755 43.2967 25.1068 43.2185 25.0598 43.1278L24.9942 42.987L25.0004 36.7162L25.0098 30.4423L25.1067 30.3203C25.1568 30.2546 25.2631 30.1702 25.3382 30.1295C25.4664 30.067 25.5165 30.0607 26.0576 30.0607C26.6958 30.0607 26.8021 30.0857 26.9679 30.2671C27.0148 30.3172 28.7509 32.9319 30.8279 36.0813C32.905 39.2308 35.7453 43.5313 37.1404 45.6424L39.6741 49.4799L39.8023 49.3955C40.9378 48.6574 42.139 47.6065 43.09 46.5119C45.1138 44.1881 46.4182 41.3545 46.8561 38.3332C46.9844 37.4544 47 37.1948 47 36.0032C47 34.8115 46.9844 34.5519 46.8561 33.673C45.9865 27.6649 41.7105 22.617 35.9111 20.7467C34.8882 20.4152 33.7996 20.1869 32.5797 20.0493C32.2794 20.018 30.2117 19.9836 29.9521 20.0086ZM36.5023 29.6854C36.6524 29.7605 36.7744 29.9043 36.8182 30.0545C36.8432 30.1358 36.8495 31.8747 36.8432 35.7936L36.8338 41.417L35.8423 39.897L34.8475 38.377V34.2892C34.8475 31.6464 34.86 30.1608 34.8788 30.0889C34.9288 29.9137 35.0383 29.7761 35.1884 29.6947C35.3167 29.6291 35.3636 29.6229 35.8547 29.6229C36.3177 29.6229 36.399 29.6291 36.5023 29.6854Z" fill="#212121"/>
</g>
</g>
<defs>
<clipPath id="clip0_863_2234">
<rect width="32" height="32" fill="white" transform="translate(15 20)"/>
</clipPath>
</defs>
</svg>
