<svg width="62" height="72" viewBox="0 0 62 72" fill="none" xmlns="http://www.w3.org/2000/svg">
<path d="M3.71741 12.0372C3.71741 12.0372 -2.92935 27.9555 1.55275 47.5831C6.03186 67.2005 30.6404 71.9959 30.6637 72.0001H30.6643C30.6882 71.9959 55.2974 67.2005 59.7759 47.5831C64.2574 27.9555 57.6118 12.0372 57.6118 12.0372L30.6643 4.61877L3.71741 12.0372Z" fill="#D6A84C"/>
<path opacity="0.8" d="M3.71741 7.98887C3.71741 7.98887 -2.92935 23.9072 1.55275 43.5347C6.03186 63.1527 30.6404 67.9475 30.6637 67.9523H30.6643C30.6882 67.9475 55.2974 63.1527 59.7759 43.5347C64.2574 23.9072 57.6118 7.98887 57.6118 7.98887L30.6643 0.570435L3.71741 7.98887Z" fill="white"/>
<path d="M3.71741 7.41844C3.71741 7.41844 -2.92935 23.3368 1.55275 42.9637C6.03186 62.5817 30.6404 67.3771 30.6637 67.3813H30.6643C30.6882 67.3771 55.2974 62.5817 59.7759 42.9637C64.2574 23.3368 57.6118 7.41844 57.6118 7.41844L30.6643 0L3.71741 7.41844Z" fill="#FBDE8E"/>
<path d="M30.6643 60.925C26.1792 59.7356 10.6769 54.714 7.67432 41.5661C4.75111 28.7631 7.14196 17.58 8.59998 12.5876L30.6643 6.51318L52.7298 12.5876C54.1849 17.568 56.5787 28.7566 53.6543 41.5661C50.6523 54.7134 35.1494 59.735 30.6643 60.925Z" fill="#F9CE69"/>
<path d="M7.63909 16.7103L30.6643 10.6359L53.6907 16.7103C53.7582 16.9317 53.8274 17.1698 53.899 17.4151C53.5159 15.4659 53.0933 13.833 52.7298 12.5881L30.6643 6.51367L8.59998 12.5881C8.23532 13.836 7.81277 15.4707 7.42902 17.4205C7.50063 17.1728 7.57105 16.9335 7.63909 16.7103Z" fill="#D6A84C"/>
<path d="M40.8 31.2998C40.45 31.2498 40.15 31.0998 39.8 30.9998C39.85 30.7998 39.85 30.5998 39.95 30.2998C40.65 26.6998 40.15 23.8498 38.55 22.8498C36.95 21.9498 34.35 22.8998 31.75 25.1498C31.55 25.3498 31.2 25.5498 31 25.8498C30.85 25.6998 30.65 25.5498 30.5 25.3498C27.75 22.8998 25.05 21.8998 23.35 22.8498C21.75 23.7498 21.25 26.4998 21.95 29.8498C22 30.1998 22.1 30.5498 22.15 30.8498C21.8 30.8998 21.4 31.0498 21.05 31.1998C17.8 32.3498 15.5 34.1998 15.5 35.9498C15.5 37.8498 17.95 39.7498 21.3 40.8498C21.6 40.8998 21.85 41.0498 22.15 41.0498C22.1 41.3998 21.95 41.7498 21.95 42.1498C21.3 45.4498 21.8 48.0998 23.4 48.9998C25 49.9998 27.8 48.9998 30.4 46.5998C30.6 46.3998 30.8 46.2498 31.05 46.0498C31.25 46.2498 31.6 46.5498 31.9 46.7498C34.4 48.9998 37 49.8998 38.65 48.9998C40.25 47.9998 40.8 45.1998 40.1 41.6998C40.05 41.4998 40.05 41.1498 39.9 40.8498C40.1 40.7998 40.25 40.7998 40.45 40.6498C43.95 39.5998 46.5 37.6998 46.5 35.7998C46.45 34.2498 44.05 32.4498 40.8 31.2998ZM32.6 26.1998C34.85 24.2498 36.95 23.5498 37.95 24.0498C38.95 24.5998 39.35 26.9998 38.7 30.1498C38.65 30.3498 38.65 30.4998 38.55 30.7998C37.2 30.4998 35.9 30.2498 34.5 30.1498C33.75 29.0498 32.9 27.8998 32 26.9998C32.2 26.5998 32.4 26.3998 32.6 26.1998ZM25.65 39.1498C25.95 39.6998 26.3 40.1998 26.65 40.6998C25.65 40.6498 24.75 40.4998 23.85 40.2998C24.05 39.4498 24.4 38.5498 24.85 37.6498C25.05 38.0998 25.4 38.6998 25.65 39.1498ZM23.85 31.9498C24.7 31.7498 25.6 31.5998 26.6 31.4498C26.25 31.9498 25.95 32.4498 25.7 32.9998C25.45 33.5498 25.15 33.9998 24.85 34.5998C24.4 33.6498 24.15 32.7998 23.85 31.9498ZM25.45 36.0998C25.8 35.2498 26.3 34.4998 26.8 33.6498C27.3 32.7998 27.8 32.0498 28.25 31.2498C29.15 31.1998 30.05 31.1998 31 31.1998C31.9 31.1998 32.9 31.2498 33.75 31.2498C34.3 31.9998 34.75 32.7998 35.2 33.5498C35.7 34.2998 36.1 35.1498 36.55 35.9998C36.2 36.8498 35.7 37.5998 35.2 38.4498C34.7 39.2998 34.2 40.0498 33.75 40.8498C32.85 40.8998 31.95 40.8998 30.95 40.8998C29.95 40.8998 29.05 40.8498 28.2 40.8498C27.65 40.0998 27.2 39.2998 26.75 38.4498C26.3 37.5998 25.9 36.9498 25.45 36.0998ZM36.35 39.1498C36.65 38.5998 36.9 38.0998 37.2 37.5498C37.55 38.3998 37.9 39.2998 38.2 40.1998C37.3 40.3998 36.3 40.5498 35.3 40.6998C35.7 40.1998 36.05 39.6498 36.35 39.1498ZM37.25 34.5498C36.95 33.9998 36.7 33.4998 36.4 32.9498C36.1 32.3998 35.75 31.9498 35.5 31.4998C36.5 31.6498 37.4 31.7998 38.25 31.9998C37.95 32.8498 37.6 33.6998 37.25 34.5498ZM31 27.7998C31.65 28.4998 32.2 29.1998 32.75 29.9498C31.55 29.8998 30.35 29.8998 29.15 29.9498C29.8 29.1498 30.45 28.4498 31 27.7998ZM24 24.0998C25 23.5498 27.3 24.2998 29.6 26.4998C29.75 26.6498 29.9 26.7998 30.1 26.8998C29.2 27.8998 28.35 28.9998 27.5 30.0498C26.15 30.1998 24.75 30.3998 23.45 30.6998C23.4 30.3998 23.3 30.0498 23.25 29.7998C22.7 26.8498 23.05 24.6498 24 24.0998ZM22.6 39.9998C22.4 39.9498 22.1 39.8498 21.85 39.7998C20.5 39.4498 19.1 38.7498 18 37.8998C17.3 37.3998 16.95 36.7998 16.8 36.0998C16.8 34.9998 18.75 33.5998 21.5 32.5998C21.85 32.4498 22.2 32.3998 22.55 32.2498C22.95 33.5998 23.45 34.8498 24 36.0998C23.5 37.3498 22.95 38.5998 22.6 39.9998ZM29.55 45.8498C28.55 46.7498 27.4 47.4498 26.1 47.9498C25.4 48.2998 24.65 48.2998 24 47.9998C23 47.4498 22.65 45.3498 23.15 42.4498C23.2 42.0998 23.3 41.7498 23.35 41.4498C24.7 41.7498 26.1 41.9498 27.4 41.9998C28.15 43.0998 29.1 44.2498 30 45.2498C29.95 45.5498 29.75 45.6998 29.55 45.8498ZM31.05 44.4498C30.4 43.7498 29.85 43.0498 29.25 42.2998C29.8 42.2998 30.35 42.3498 31 42.3498C31.65 42.3498 32.25 42.3498 32.8 42.2998C32.25 42.9498 31.7 43.6498 31.05 44.4498ZM38.95 46.1998C38.9 46.8998 38.55 47.6498 37.95 48.0998C36.95 48.6498 34.95 47.9498 32.75 45.9998C32.55 45.7998 32.25 45.5998 32 45.2998C32.9 44.2998 33.75 43.1998 34.5 42.0498C35.9 41.9998 37.25 41.6998 38.55 41.3998C38.6 41.5998 38.6 41.8998 38.7 42.0998C39.05 43.4998 39.05 44.8998 38.95 46.1998ZM40.05 39.7498C39.9 39.7998 39.7 39.7998 39.5 39.8998C39.1 38.5498 38.5 37.2998 37.95 36.0498C38.5 34.8498 39 33.5498 39.4 32.2498C39.75 32.2998 40.05 32.4498 40.3 32.5498C43.1 33.5498 45.05 34.9498 45.05 36.0498C45.1 37.1998 43.05 38.7498 40.05 39.7498ZM31 38.7998C32.55 38.7998 33.75 37.5498 33.75 36.0498C33.75 34.5498 32.5 33.2998 31 33.2998C29.55 33.2998 28.25 34.5498 28.25 36.0498C28.25 37.5498 29.45 38.7998 31 38.7998Z" fill="#369BAF"/>
</svg>
