<svg width="62" height="72" viewBox="0 0 62 72" fill="none" xmlns="http://www.w3.org/2000/svg">
<path d="M4.21741 12.0372C4.21741 12.0372 -2.42935 27.9555 2.05275 47.5831C6.53186 67.2005 31.1404 71.9959 31.1637 72.0001H31.1643C31.1882 71.9959 55.7974 67.2005 60.2759 47.5831C64.7574 27.9555 58.1118 12.0372 58.1118 12.0372L31.1643 4.61877L4.21741 12.0372Z" fill="#D6A84C"/>
<path opacity="0.8" d="M4.21741 7.98887C4.21741 7.98887 -2.42935 23.9072 2.05275 43.5347C6.53186 63.1527 31.1404 67.9475 31.1637 67.9523H31.1643C31.1882 67.9475 55.7974 63.1527 60.2759 43.5347C64.7574 23.9072 58.1118 7.98887 58.1118 7.98887L31.1643 0.570435L4.21741 7.98887Z" fill="white"/>
<path d="M4.21741 7.41844C4.21741 7.41844 -2.42935 23.3368 2.05275 42.9637C6.53186 62.5817 31.1404 67.3771 31.1637 67.3813H31.1643C31.1882 67.3771 55.7974 62.5817 60.2759 42.9637C64.7574 23.3368 58.1118 7.41844 58.1118 7.41844L31.1643 0L4.21741 7.41844Z" fill="#FBDE8E"/>
<path d="M31.1643 60.925C26.6792 59.7356 11.1769 54.714 8.17432 41.5661C5.25111 28.7631 7.64196 17.58 9.09998 12.5876L31.1643 6.51318L53.2298 12.5876C54.6849 17.568 57.0787 28.7566 54.1543 41.5661C51.1523 54.7134 35.6494 59.735 31.1643 60.925Z" fill="#F9CE69"/>
<path d="M8.13909 16.7103L31.1643 10.6359L54.1907 16.7103C54.2582 16.9317 54.3274 17.1698 54.399 17.4151C54.0159 15.4659 53.5933 13.833 53.2298 12.5881L31.1643 6.51367L9.09998 12.5881C8.73532 13.836 8.31277 15.4707 7.92902 17.4205C8.00063 17.1728 8.07105 16.9335 8.13909 16.7103Z" fill="#D6A84C"/>
<path d="M31 21.28C22.8835 21.28 16.28 27.8835 16.28 36C16.28 44.1165 22.8835 50.72 31 50.72C39.1165 50.72 45.72 44.1165 45.72 36C45.72 27.8835 39.1165 21.28 31 21.28ZM34.615 25.7613C37.0616 25.7206 39.0785 26.6111 39.5 28.265C40.1035 30.6311 38.0498 33.4606 35.42 34.4775C33.0719 35.3857 31.1306 35.243 30.3325 34.9813C29.4256 34.6837 28.8943 34.0848 28.765 33.7475C28.7145 33.615 28.6261 33.3943 28.765 33.3175C28.8501 33.2702 28.8834 33.281 29.1113 33.5325C29.3282 33.7712 30.1988 34.4131 31.8525 34.2275C36.1936 33.7411 38.8075 30.3676 37.9813 28.5525C37.4027 27.2821 34.0574 26.71 29.8775 28.7925C24.7748 31.3352 24.4985 33.4314 24.455 34.2275C24.3353 36.417 27.1574 37.5687 28.6838 39.1975C28.7196 39.2359 28.7542 39.2747 28.7888 39.3138C29.2509 39.1416 29.8906 39.0448 30.9075 39.0275C33.3766 38.9853 34.7714 40.6122 34.7138 42.0675C34.669 43.2138 33.6171 43.6861 33.4213 43.7188C33.2792 43.7431 33.2011 43.7476 33.1813 43.6363C33.1672 43.5595 33.2186 43.5237 33.385 43.42C33.5514 43.317 34.0498 42.9765 34.1388 42.355C34.2277 41.7342 33.7626 40.2496 31.3863 39.9725C30.544 39.874 29.8808 39.9409 29.3125 40.0913C29.7247 40.9994 29.8041 42.8269 28.8563 44.2413C27.8739 45.7069 26.0455 46.5973 24.2638 46.1013C23.6891 45.9413 22.8193 44.7538 23.5688 43.0975C24.2792 41.5276 27.3134 39.9917 27.7275 39.7875V39.78C26.3214 38.5698 22.9019 36.9385 22.42 34.4425C22.2831 33.7353 22.6144 32.0412 24.6938 30.0963C26.4429 28.4604 28.8761 27.2081 31.1225 26.41C32.3023 25.9908 33.5029 25.7798 34.615 25.7613ZM28.3113 40.5263C28.2697 40.5493 28.2285 40.572 28.1875 40.5938L28.1888 40.5988C28.1888 40.5988 26.7768 41.2651 25.795 42.3025C24.8824 43.267 24.6287 44.4775 25.1375 44.7725C25.6092 45.0458 26.7078 44.722 27.495 43.8638C27.7529 43.5822 27.9638 43.277 28.1213 42.9513C28.1526 42.886 28.1819 42.8203 28.2088 42.7538C28.2357 42.6872 28.2614 42.6198 28.2838 42.5513C28.4873 41.9356 28.5084 41.2552 28.3113 40.5263Z" fill="#CE6B9C"/>
</svg>
