<svg width="62" height="72" viewBox="0 0 62 72" fill="none" xmlns="http://www.w3.org/2000/svg">
<path d="M3.71741 12.0372C3.71741 12.0372 -2.92935 27.9555 1.55275 47.5831C6.03186 67.2005 30.6404 71.9959 30.6637 72.0001H30.6643C30.6882 71.9959 55.2974 67.2005 59.7759 47.5831C64.2574 27.9555 57.6118 12.0372 57.6118 12.0372L30.6643 4.61877L3.71741 12.0372Z" fill="#D6A84C"/>
<path opacity="0.8" d="M3.71741 7.98887C3.71741 7.98887 -2.92935 23.9072 1.55275 43.5347C6.03186 63.1527 30.6404 67.9475 30.6637 67.9523H30.6643C30.6882 67.9475 55.2974 63.1527 59.7759 43.5347C64.2574 23.9072 57.6118 7.98887 57.6118 7.98887L30.6643 0.570435L3.71741 7.98887Z" fill="white"/>
<path d="M3.71741 7.41844C3.71741 7.41844 -2.92935 23.3368 1.55275 42.9637C6.03186 62.5817 30.6404 67.3771 30.6637 67.3813H30.6643C30.6882 67.3771 55.2974 62.5817 59.7759 42.9637C64.2574 23.3368 57.6118 7.41844 57.6118 7.41844L30.6643 0L3.71741 7.41844Z" fill="#FBDE8E"/>
<path d="M30.6643 60.925C26.1792 59.7356 10.6769 54.714 7.67432 41.5661C4.75111 28.7631 7.14196 17.58 8.59998 12.5876L30.6643 6.51318L52.7298 12.5876C54.1849 17.568 56.5787 28.7566 53.6543 41.5661C50.6523 54.7134 35.1494 59.735 30.6643 60.925Z" fill="#F9CE69"/>
<path d="M7.63909 16.7103L30.6643 10.6359L53.6907 16.7103C53.7582 16.9317 53.8274 17.1698 53.899 17.4151C53.5159 15.4659 53.0933 13.833 52.7298 12.5881L30.6643 6.51367L8.59998 12.5881C8.23532 13.836 7.81277 15.4707 7.42902 17.4205C7.50063 17.1728 7.57105 16.9335 7.63909 16.7103Z" fill="#D6A84C"/>
<path fill-rule="evenodd" clip-rule="evenodd" d="M23.7928 33C24.7773 29.0001 27.2391 27 31.1775 27C37.0852 27 37.8236 31.5 40.7775 32.25C42.7468 32.7502 44.4698 32.0001 45.9467 30C44.9622 33.9999 42.5004 36 38.5621 36C32.6543 36 31.9159 31.5 28.9621 30.75C26.9927 30.2498 25.2697 30.9999 23.7928 33ZM16.4082 42C17.3927 38.0001 19.8545 36 23.7928 36C29.7005 36 30.439 40.5 33.3929 41.25C35.3622 41.7502 37.0852 41.0001 38.5621 39C37.5776 42.9999 35.1158 45 31.1775 45C25.2697 45 24.5313 40.5 21.5774 39.75C19.608 39.2498 17.8851 39.9999 16.4082 42Z" fill="#19B7D5"/>
</svg>
