<svg width="85" height="54" viewBox="0 0 85 54" fill="none" xmlns="http://www.w3.org/2000/svg">
<path d="M25.6005 22.0585L28.5462 14.2712L0.780975 3.76807C0.780975 3.76807 -1.23705 11.9068 6.05982 14.6665C13.3567 17.4271 25.6005 22.0585 25.6005 22.0585Z" fill="#F9CE69"/>
<path d="M27.977 32.7812L30.9222 24.9948L3.15703 14.4917C3.15703 14.4917 1.13853 22.6295 8.4354 25.3897C15.7332 28.1503 27.977 32.7812 27.977 32.7812Z" fill="#F9CE69"/>
<path d="M5.534 25.2148C5.534 25.2148 3.51551 33.3531 10.8119 36.1128C18.1088 38.8735 30.3531 43.5048 30.3531 43.5048L33.2983 35.7175L5.534 25.2148Z" fill="#F9CE69"/>
<path d="M25.6005 18.2899L28.5462 10.5027L0.780975 0C0.780975 0 -1.23705 8.13829 6.05982 10.898C13.3567 13.6581 25.6005 18.2899 25.6005 18.2899Z" fill="#FBDE8E"/>
<path d="M27.977 29.0131L30.9222 21.2263L3.15703 10.7231C3.15703 10.7231 1.13853 18.861 8.4354 21.6216C15.7332 24.3813 27.977 29.0131 27.977 29.0131Z" fill="#FBDE8E"/>
<path d="M5.534 21.4468C5.534 21.4468 3.51551 29.5837 10.8119 32.3443C18.1088 35.1049 30.3531 39.7363 30.3531 39.7363L33.2983 31.949L5.534 21.4468Z" fill="#FBDE8E"/>
<path d="M19.3469 32.5936C19.6247 33.8099 20.0135 34.9445 20.4885 36.0046C25.7389 37.9904 30.353 39.7362 30.353 39.7362L33.2982 31.9489L18.3884 26.3083C18.5479 28.3175 18.8509 30.4241 19.3469 32.5936Z" fill="#F9CE69"/>
<path d="M18.3265 25.3626C23.4874 27.3149 27.977 29.0131 27.977 29.0131L30.9222 21.2263L18.6518 16.5847C18.3157 19.137 18.1377 22.1125 18.3265 25.3626Z" fill="#F9CE69"/>
<path d="M28.5462 10.5026L20.8172 7.57837C20.5477 8.26922 19.4471 11.2667 18.7763 15.7078C22.6455 17.172 25.6005 18.2899 25.6005 18.2899L28.5462 10.5026Z" fill="#F9CE69"/>
<path d="M59.712 22.0585L56.7664 14.2712L84.5316 3.76807C84.5316 3.76807 86.5496 11.9068 79.2527 14.6665C71.9559 17.4271 59.712 22.0585 59.712 22.0585Z" fill="#F9CE69"/>
<path d="M57.336 32.7812L54.3903 24.9948L82.1555 14.4917C82.1555 14.4917 84.174 22.6295 76.8772 25.3897C69.5794 28.1503 57.336 32.7812 57.336 32.7812Z" fill="#F9CE69"/>
<path d="M79.7786 25.2148C79.7786 25.2148 81.7971 33.3531 74.5006 36.1128C67.2038 38.8735 54.9595 43.5048 54.9595 43.5048L52.0143 35.7175L79.7786 25.2148Z" fill="#F9CE69"/>
<path d="M59.712 18.2899L56.7664 10.5027L84.5316 0C84.5316 0 86.5496 8.13829 79.2527 10.898C71.9559 13.6581 59.712 18.2899 59.712 18.2899Z" fill="#FBDE8E"/>
<path d="M57.336 29.0131L54.3903 21.2263L82.1555 10.7231C82.1555 10.7231 84.174 18.861 76.8772 21.6216C69.5794 24.3813 57.336 29.0131 57.336 29.0131Z" fill="#FBDE8E"/>
<path d="M79.7786 21.4468C79.7786 21.4468 81.7971 29.5837 74.5006 32.3443C67.2038 35.1049 54.9595 39.7363 54.9595 39.7363L52.0143 31.949L79.7786 21.4468Z" fill="#FBDE8E"/>
<path d="M65.9657 32.5936C65.6878 33.8099 65.299 34.9445 64.824 36.0046C59.5736 37.9904 54.9595 39.7362 54.9595 39.7362L52.0143 31.9489L66.9241 26.3083C66.7647 28.3175 66.4617 30.4241 65.9657 32.5936Z" fill="#F9CE69"/>
<path d="M66.9866 25.3626C61.8252 27.3149 57.336 29.0131 57.336 29.0131L54.3903 21.2263L66.6607 16.5847C66.9968 19.137 67.1749 22.1125 66.9866 25.3626Z" fill="#F9CE69"/>
<path d="M56.7664 10.5026L64.4954 7.57837C64.7648 8.26922 65.8654 11.2667 66.5362 15.7078C62.6671 17.172 59.712 18.2899 59.712 18.2899L56.7664 10.5026Z" fill="#F9CE69"/>
<path d="M61.7389 11.5381L52.5462 12.5231L42.656 5.90306L32.7654 12.5231L23.5731 11.5381C23.5731 11.5381 18.8667 22.8108 22.0404 36.7091C25.2122 50.6012 42.6388 53.9972 42.6556 54C42.6723 53.9972 60.0994 50.6012 63.2712 36.7091C66.4449 22.8108 61.7389 11.5381 61.7389 11.5381Z" fill="#F9CE69"/>
<path opacity="0.8" d="M61.7389 8.99552L52.5462 9.98006L42.656 3.36007L32.7654 9.98006L23.5731 8.99552C23.5731 8.99552 18.8667 20.2678 22.0404 34.167C25.2122 48.0592 42.6388 51.4542 42.6556 51.4575C42.6723 51.4542 60.0994 48.0592 63.2712 34.167C66.4449 20.2678 61.7389 8.99552 61.7389 8.99552Z" fill="white"/>
<path d="M61.7389 8.61273L52.5462 9.59681L42.656 2.97681L32.7654 9.59681L23.5731 8.61273C23.5731 8.61273 18.8667 19.885 22.0404 33.7837C25.2122 47.6764 42.6388 51.0719 42.6556 51.0747C42.6723 51.0719 60.0994 47.6764 63.2712 33.7837C66.4449 19.8846 61.7389 8.61273 61.7389 8.61273Z" fill="#FBDE8E"/>
<path opacity="0.2" d="M52.7881 9.57117L52.5462 9.59682L42.6561 2.97681L38.6154 5.68196L62.3184 36.7602C62.7086 35.8255 63.0307 34.8354 63.2713 33.7837C63.9989 30.5966 64.3094 27.5502 64.3597 24.7434L52.7881 9.57117Z" fill="white"/>
<path opacity="0.2" d="M22.6096 11.5422C21.4987 15.5214 20.0303 23.1721 21.6945 32.094L33.5631 47.6551C38.3068 50.2269 42.6472 51.073 42.6561 51.0748H42.6565C42.6645 51.0739 46.3308 50.3583 50.6046 48.2476L22.6096 11.5422Z" fill="white"/>
<path d="M42.6565 46.5884C39.4955 45.7526 28.4362 42.1883 26.2946 32.8123C24.4109 24.5603 25.6378 17.2564 26.654 13.3304L33.8768 14.1047L42.6561 8.22729L51.4358 14.1047L58.6595 13.3304C59.6743 17.2508 60.9022 24.5566 59.018 32.8123C56.8764 42.1883 45.8171 45.7526 42.6565 46.5884Z" fill="#F9CE69"/>
<path d="M33.2978 15.8234L42.4799 9.94605L51.6619 15.8234L59.0655 15.065C58.9313 14.4324 58.7933 13.8506 58.659 13.3304L51.4353 14.1047L42.6556 8.22729L33.8763 14.1047L26.6536 13.3304C26.5161 13.86 26.3762 14.4543 26.2396 15.1L33.2978 15.8234Z" fill="#D6A84C"/>
<g clip-path="url(#clip0_585_6597)">
<path d="M41.6105 17.2147L32.6627 20.9174C32.165 21.1237 32.1703 21.8302 32.6709 22.0285L41.6559 25.5918C42.4454 25.9049 43.3246 25.9049 44.114 25.5918L53.099 22.0285C53.5997 21.8298 53.6053 21.1233 53.1073 20.9174L44.1598 17.215C43.3435 16.8772 42.4265 16.8772 41.6102 17.215" fill="#E3B600"/>
<path d="M43.6824 27.5374V36.4387C43.6826 36.5365 43.7066 36.6328 43.7524 36.7192C43.7982 36.8055 43.8644 36.8794 43.9453 36.9343C44.0262 36.9893 44.1193 37.0236 44.2165 37.0343C44.3137 37.0451 44.412 37.0319 44.5029 36.996L54.5154 33.1095C54.627 33.0651 54.7227 32.9883 54.7902 32.889C54.8576 32.7896 54.8937 32.6723 54.8938 32.5522V23.6512C54.8937 23.5535 54.8697 23.4572 54.8238 23.3708C54.778 23.2845 54.7118 23.2106 54.6309 23.1557C54.55 23.1007 54.4569 23.0664 54.3598 23.0556C54.2626 23.0449 54.1642 23.0581 54.0733 23.094L44.0608 26.9805C43.9492 27.0248 43.8535 27.1017 43.786 27.201C43.7186 27.3004 43.6825 27.4173 43.6824 27.5374Z" fill="#31C2F2"/>
<path d="M41.345 27.9968L38.072 29.5775L31.7994 32.5831C31.4019 32.7751 30.8942 32.4856 30.8942 32.0431V23.6888C30.8942 23.5291 30.9759 23.3911 31.0862 23.2876C31.1312 23.2427 31.1823 23.2043 31.238 23.1736C31.388 23.0836 31.6018 23.0596 31.7837 23.1316L41.2955 26.9003C41.783 27.0923 41.8205 27.7696 41.3454 27.9972" fill="#ED3049"/>
<path d="M41.3451 27.9969L38.3736 29.4316L31.0858 23.2869C31.1309 23.242 31.182 23.2036 31.2377 23.1729C31.3877 23.0829 31.6014 23.0589 31.7833 23.1309L41.2952 26.8996C41.7827 27.0916 41.8202 27.7692 41.3451 27.9969Z" fill="#C62842"/>
</g>
<defs>
<clipPath id="clip0_585_6597">
<rect width="24" height="24" fill="white" transform="translate(30.8938 15)"/>
</clipPath>
</defs>
</svg>
