<svg width="85" height="54" viewBox="0 0 85 54" fill="none" xmlns="http://www.w3.org/2000/svg">
<path d="M25.0755 22.0585L28.0212 14.2712L0.25595 3.76807C0.25595 3.76807 -1.76207 11.9068 5.5348 14.6665C12.8317 17.4271 25.0755 22.0585 25.0755 22.0585Z" fill="#F9CE69"/>
<path d="M27.452 32.7812L30.3972 24.9948L2.63197 14.4917C2.63197 14.4917 0.613479 22.6295 7.91035 25.3897C15.2081 28.1503 27.452 32.7812 27.452 32.7812Z" fill="#F9CE69"/>
<path d="M5.00898 25.2148C5.00898 25.2148 2.99048 33.3531 10.2869 36.1128C17.5838 38.8735 29.828 43.5048 29.828 43.5048L32.7733 35.7175L5.00898 25.2148Z" fill="#F9CE69"/>
<path d="M25.0755 18.2899L28.0212 10.5027L0.25595 0C0.25595 0 -1.76207 8.13829 5.5348 10.898C12.8317 13.6581 25.0755 18.2899 25.0755 18.2899Z" fill="#FBDE8E"/>
<path d="M27.452 29.0131L30.3972 21.2263L2.63197 10.7231C2.63197 10.7231 0.613479 18.861 7.91035 21.6216C15.2081 24.3813 27.452 29.0131 27.452 29.0131Z" fill="#FBDE8E"/>
<path d="M5.00898 21.4468C5.00898 21.4468 2.99048 29.5837 10.2869 32.3443C17.5838 35.1049 29.828 39.7363 29.828 39.7363L32.7733 31.949L5.00898 21.4468Z" fill="#FBDE8E"/>
<path d="M18.8219 32.5936C19.0997 33.8099 19.4885 34.9445 19.9635 36.0046C25.2139 37.9904 29.828 39.7362 29.828 39.7362L32.7732 31.9489L17.8634 26.3083C18.0229 28.3175 18.3259 30.4241 18.8219 32.5936Z" fill="#F9CE69"/>
<path d="M17.8014 25.3626C22.9623 27.3149 27.452 29.0131 27.452 29.0131L30.3972 21.2263L18.1268 16.5847C17.7907 19.137 17.6126 22.1125 17.8014 25.3626Z" fill="#F9CE69"/>
<path d="M28.0212 10.5026L20.2921 7.57837C20.0227 8.26922 18.9221 11.2667 18.2513 15.7078C22.1204 17.172 25.0755 18.2899 25.0755 18.2899L28.0212 10.5026Z" fill="#F9CE69"/>
<path d="M59.187 22.0585L56.2413 14.2712L84.0065 3.76807C84.0065 3.76807 86.0246 11.9068 78.7277 14.6665C71.4308 17.4271 59.187 22.0585 59.187 22.0585Z" fill="#F9CE69"/>
<path d="M56.811 32.7812L53.8653 24.9948L81.6305 14.4917C81.6305 14.4917 83.649 22.6295 76.3521 25.3897C69.0543 28.1503 56.811 32.7812 56.811 32.7812Z" fill="#F9CE69"/>
<path d="M79.2535 25.2148C79.2535 25.2148 81.272 33.3531 73.9756 36.1128C66.6788 38.8735 54.4345 43.5048 54.4345 43.5048L51.4893 35.7175L79.2535 25.2148Z" fill="#F9CE69"/>
<path d="M59.187 18.2899L56.2413 10.5027L84.0065 0C84.0065 0 86.0246 8.13829 78.7277 10.898C71.4308 13.6581 59.187 18.2899 59.187 18.2899Z" fill="#FBDE8E"/>
<path d="M56.811 29.0131L53.8653 21.2263L81.6305 10.7231C81.6305 10.7231 83.649 18.861 76.3521 21.6216C69.0543 24.3813 56.811 29.0131 56.811 29.0131Z" fill="#FBDE8E"/>
<path d="M79.2535 21.4468C79.2535 21.4468 81.272 29.5837 73.9756 32.3443C66.6788 35.1049 54.4345 39.7363 54.4345 39.7363L51.4893 31.949L79.2535 21.4468Z" fill="#FBDE8E"/>
<path d="M65.4406 32.5936C65.1628 33.8099 64.774 34.9445 64.299 36.0046C59.0486 37.9904 54.4345 39.7362 54.4345 39.7362L51.4893 31.9489L66.3991 26.3083C66.2396 28.3175 65.9366 30.4241 65.4406 32.5936Z" fill="#F9CE69"/>
<path d="M66.4615 25.3626C61.3002 27.3149 56.811 29.0131 56.811 29.0131L53.8653 21.2263L66.1357 16.5847C66.4718 19.137 66.6499 22.1125 66.4615 25.3626Z" fill="#F9CE69"/>
<path d="M56.2413 10.5026L63.9703 7.57837C64.2398 8.26922 65.3404 11.2667 66.0112 15.7078C62.142 17.172 59.187 18.2899 59.187 18.2899L56.2413 10.5026Z" fill="#F9CE69"/>
<path d="M61.2139 11.5381L52.0212 12.5231L42.131 5.90306L32.2404 12.5231L23.0481 11.5381C23.0481 11.5381 18.3417 22.8108 21.5154 36.7091C24.6872 50.6012 42.1138 53.9972 42.1306 54C42.1473 53.9972 59.5744 50.6012 62.7462 36.7091C65.9199 22.8108 61.2139 11.5381 61.2139 11.5381Z" fill="#F9CE69"/>
<path opacity="0.8" d="M61.2139 8.99552L52.0212 9.98006L42.131 3.36007L32.2404 9.98006L23.0481 8.99552C23.0481 8.99552 18.3417 20.2678 21.5154 34.167C24.6872 48.0592 42.1138 51.4542 42.1306 51.4575C42.1473 51.4542 59.5744 48.0592 62.7462 34.167C65.9199 20.2678 61.2139 8.99552 61.2139 8.99552Z" fill="white"/>
<path d="M61.2139 8.61273L52.0212 9.59681L42.131 2.97681L32.2404 9.59681L23.0481 8.61273C23.0481 8.61273 18.3417 19.885 21.5154 33.7837C24.6872 47.6764 42.1138 51.0719 42.1306 51.0747C42.1473 51.0719 59.5744 47.6764 62.7462 33.7837C65.9199 19.8846 61.2139 8.61273 61.2139 8.61273Z" fill="#FBDE8E"/>
<path opacity="0.2" d="M52.2631 9.57117L52.0212 9.59682L42.131 2.97681L38.0903 5.68196L61.7934 36.7602C62.1836 35.8255 62.5057 34.8354 62.7462 33.7837C63.4739 30.5966 63.7844 27.5502 63.8347 24.7434L52.2631 9.57117Z" fill="white"/>
<path opacity="0.2" d="M22.0846 11.5422C20.9737 15.5214 19.5053 23.1721 21.1695 32.094L33.038 47.6551C37.7817 50.2269 42.1222 51.073 42.131 51.0748H42.1315C42.1394 51.0739 45.8058 50.3583 50.0796 48.2476L22.0846 11.5422Z" fill="white"/>
<path d="M42.1315 46.5884C38.9704 45.7526 27.9112 42.1883 25.7696 32.8123C23.8858 24.5603 25.1128 17.2564 26.129 13.3304L33.3518 14.1047L42.131 8.22729L50.9108 14.1047L58.1345 13.3304C59.1493 17.2508 60.3772 24.5566 58.4929 32.8123C56.3514 42.1883 45.2921 45.7526 42.1315 46.5884Z" fill="#F9CE69"/>
<path d="M32.7728 15.8234L41.9548 9.94605L51.1368 15.8234L58.5405 15.065C58.4062 14.4324 58.2682 13.8506 58.134 13.3304L50.9103 14.1047L42.1305 8.22729L33.3513 14.1047L26.1285 13.3304C25.991 13.86 25.8512 14.4543 25.7146 15.1L32.7728 15.8234Z" fill="#D6A84C"/>
<g clip-path="url(#clip0_581_3595)">
<path fill-rule="evenodd" clip-rule="evenodd" d="M30.6312 33.4668C30.6312 31.9266 31.8797 30.678 33.4197 30.678H47.0544C48.5945 30.678 49.8429 31.9262 49.8429 33.4668C49.8429 35.007 48.5944 36.2556 47.0544 36.2556H33.4197C31.8796 36.2556 30.6312 35.0073 30.6312 33.4668ZM33.42 34.8095C34.1616 34.8095 34.7628 34.2084 34.7628 33.4668C34.7628 32.7252 34.1616 32.124 33.42 32.124C32.6784 32.124 32.0773 32.7252 32.0773 33.4668C32.0773 34.2084 32.6784 34.8095 33.42 34.8095ZM47.0541 34.8095C47.7957 34.8095 48.3968 34.2084 48.3968 33.4668C48.3968 32.7252 47.7957 32.124 47.0541 32.124C46.3125 32.124 45.7113 32.7252 45.7113 33.4668C45.7113 34.2084 46.3125 34.8095 47.0541 34.8095Z" fill="#EA4335"/>
<path fill-rule="evenodd" clip-rule="evenodd" d="M33.7677 23.8136C34.6731 22.5676 36.417 22.2913 37.6627 23.1965L48.6936 31.2108C49.9395 32.116 50.2158 33.8596 49.3102 35.106C48.405 36.352 46.661 36.6283 45.4152 35.7232L34.3844 27.7088C33.1385 26.8036 32.8622 25.06 33.7677 23.8136ZM35.2346 26.5392C35.8346 26.975 36.6743 26.8421 37.1102 26.2421C37.5461 25.6422 37.4131 24.8024 36.8131 24.3665C36.2132 23.9307 35.3735 24.0637 34.9376 24.6636C34.5017 25.2636 34.6347 26.1033 35.2346 26.5392ZM46.2648 34.5531C46.8648 34.9889 47.7045 34.856 48.1404 34.256C48.5763 33.6561 48.4433 32.8164 47.8433 32.3805C47.2434 31.9446 46.4037 32.0776 45.9678 32.6775C45.5319 33.2775 45.6649 34.1172 46.2648 34.5531Z" fill="#FBBC04"/>
<path fill-rule="evenodd" clip-rule="evenodd" d="M41.9792 17.8477C43.4439 17.3718 45.0172 18.1733 45.4931 19.6378L49.7065 32.6054C50.1824 34.07 49.3811 35.6431 47.9159 36.1191C46.4511 36.595 44.8778 35.7935 44.4019 34.3289L40.1885 21.3614C39.7126 19.8968 40.514 18.3238 41.9792 17.8477ZM41.5639 20.915C41.793 21.6202 42.5505 22.0062 43.2559 21.7771C43.9612 21.5479 44.3471 20.7903 44.1179 20.0851C43.8888 19.3798 43.1313 18.9938 42.426 19.223C41.7207 19.4521 41.3347 20.2097 41.5639 20.915ZM45.777 33.8817C46.0062 34.587 46.7637 34.9729 47.469 34.7438C48.1743 34.5146 48.5602 33.7571 48.3311 33.0519C48.1019 32.3466 47.3444 31.9606 46.6392 32.1898C45.9339 32.4189 45.5479 33.1764 45.7771 33.8817H45.777Z" fill="#34A853"/>
<path fill-rule="evenodd" clip-rule="evenodd" d="M52.4008 17.9386C53.8572 18.4401 54.6312 20.0271 54.1299 21.4831L49.6908 34.375C49.1894 35.8311 47.6028 36.6052 46.1461 36.1036C44.6899 35.6021 43.9158 34.0152 44.4171 32.5592L48.8562 19.6672C49.3576 18.2111 50.9443 17.4371 52.4009 17.9387L52.4008 17.9386ZM50.2234 20.1383C49.9819 20.8395 50.3546 21.6037 51.0558 21.8451C51.7569 22.0865 52.5211 21.7138 52.7625 21.0126C53.0039 20.3115 52.6313 19.5473 51.9301 19.3059C51.2289 19.0645 50.4647 19.4371 50.2234 20.1383ZM45.7845 33.0296C45.5431 33.7308 45.9158 34.4949 46.6169 34.7363C47.3181 34.9778 48.0823 34.6051 48.3237 33.9039C48.5651 33.2027 48.1924 32.4386 47.4913 32.1972C46.7901 31.9557 46.0259 32.3284 45.7845 33.0296Z" fill="#4285F4"/>
</g>
<defs>
<clipPath id="clip0_581_3595">
<rect width="24" height="24" fill="white" transform="translate(30.6312 15)"/>
</clipPath>
</defs>
</svg>
