<svg width="85" height="54" viewBox="0 0 85 54" fill="none" xmlns="http://www.w3.org/2000/svg">
<path d="M25.0755 22.0585L28.0212 14.2712L0.25595 3.76807C0.25595 3.76807 -1.76207 11.9068 5.5348 14.6665C12.8317 17.4271 25.0755 22.0585 25.0755 22.0585Z" fill="#F9CE69"/>
<path d="M27.452 32.7812L30.3972 24.9948L2.63197 14.4917C2.63197 14.4917 0.613479 22.6295 7.91035 25.3897C15.2081 28.1503 27.452 32.7812 27.452 32.7812Z" fill="#F9CE69"/>
<path d="M5.00898 25.2148C5.00898 25.2148 2.99048 33.3531 10.2869 36.1128C17.5838 38.8735 29.828 43.5048 29.828 43.5048L32.7733 35.7175L5.00898 25.2148Z" fill="#F9CE69"/>
<path d="M25.0755 18.2899L28.0212 10.5027L0.25595 0C0.25595 0 -1.76207 8.13829 5.5348 10.898C12.8317 13.6581 25.0755 18.2899 25.0755 18.2899Z" fill="#FBDE8E"/>
<path d="M27.452 29.0131L30.3972 21.2263L2.63197 10.7231C2.63197 10.7231 0.613479 18.861 7.91035 21.6216C15.2081 24.3813 27.452 29.0131 27.452 29.0131Z" fill="#FBDE8E"/>
<path d="M5.00898 21.4468C5.00898 21.4468 2.99048 29.5837 10.2869 32.3443C17.5838 35.1049 29.828 39.7363 29.828 39.7363L32.7733 31.949L5.00898 21.4468Z" fill="#FBDE8E"/>
<path d="M18.8219 32.5936C19.0997 33.8099 19.4885 34.9445 19.9635 36.0046C25.2139 37.9904 29.828 39.7362 29.828 39.7362L32.7732 31.9489L17.8634 26.3083C18.0229 28.3175 18.3259 30.4241 18.8219 32.5936Z" fill="#F9CE69"/>
<path d="M17.8014 25.3626C22.9623 27.3149 27.452 29.0131 27.452 29.0131L30.3972 21.2263L18.1268 16.5847C17.7907 19.137 17.6126 22.1125 17.8014 25.3626Z" fill="#F9CE69"/>
<path d="M28.0212 10.5026L20.2921 7.57837C20.0227 8.26922 18.9221 11.2667 18.2513 15.7078C22.1204 17.172 25.0755 18.2899 25.0755 18.2899L28.0212 10.5026Z" fill="#F9CE69"/>
<path d="M59.187 22.0585L56.2413 14.2712L84.0065 3.76807C84.0065 3.76807 86.0246 11.9068 78.7277 14.6665C71.4308 17.4271 59.187 22.0585 59.187 22.0585Z" fill="#F9CE69"/>
<path d="M56.811 32.7812L53.8653 24.9948L81.6305 14.4917C81.6305 14.4917 83.649 22.6295 76.3521 25.3897C69.0543 28.1503 56.811 32.7812 56.811 32.7812Z" fill="#F9CE69"/>
<path d="M79.2535 25.2148C79.2535 25.2148 81.272 33.3531 73.9756 36.1128C66.6788 38.8735 54.4345 43.5048 54.4345 43.5048L51.4893 35.7175L79.2535 25.2148Z" fill="#F9CE69"/>
<path d="M59.187 18.2899L56.2413 10.5027L84.0065 0C84.0065 0 86.0246 8.13829 78.7277 10.898C71.4308 13.6581 59.187 18.2899 59.187 18.2899Z" fill="#FBDE8E"/>
<path d="M56.811 29.0131L53.8653 21.2263L81.6305 10.7231C81.6305 10.7231 83.649 18.861 76.3521 21.6216C69.0543 24.3813 56.811 29.0131 56.811 29.0131Z" fill="#FBDE8E"/>
<path d="M79.2535 21.4468C79.2535 21.4468 81.272 29.5837 73.9756 32.3443C66.6788 35.1049 54.4345 39.7363 54.4345 39.7363L51.4893 31.949L79.2535 21.4468Z" fill="#FBDE8E"/>
<path d="M65.4406 32.5936C65.1628 33.8099 64.774 34.9445 64.299 36.0046C59.0486 37.9904 54.4345 39.7362 54.4345 39.7362L51.4893 31.9489L66.3991 26.3083C66.2396 28.3175 65.9366 30.4241 65.4406 32.5936Z" fill="#F9CE69"/>
<path d="M66.4615 25.3626C61.3002 27.3149 56.811 29.0131 56.811 29.0131L53.8653 21.2263L66.1357 16.5847C66.4718 19.137 66.6499 22.1125 66.4615 25.3626Z" fill="#F9CE69"/>
<path d="M56.2413 10.5026L63.9703 7.57837C64.2398 8.26922 65.3404 11.2667 66.0112 15.7078C62.142 17.172 59.187 18.2899 59.187 18.2899L56.2413 10.5026Z" fill="#F9CE69"/>
<path d="M61.2139 11.5381L52.0212 12.5231L42.131 5.90306L32.2404 12.5231L23.0481 11.5381C23.0481 11.5381 18.3417 22.8108 21.5154 36.7091C24.6872 50.6012 42.1138 53.9972 42.1306 54C42.1473 53.9972 59.5744 50.6012 62.7462 36.7091C65.9199 22.8108 61.2139 11.5381 61.2139 11.5381Z" fill="#F9CE69"/>
<path opacity="0.8" d="M61.2139 8.99552L52.0212 9.98006L42.131 3.36007L32.2404 9.98006L23.0481 8.99552C23.0481 8.99552 18.3417 20.2678 21.5154 34.167C24.6872 48.0592 42.1138 51.4542 42.1306 51.4575C42.1473 51.4542 59.5744 48.0592 62.7462 34.167C65.9199 20.2678 61.2139 8.99552 61.2139 8.99552Z" fill="white"/>
<path d="M61.2139 8.61273L52.0212 9.59681L42.131 2.97681L32.2404 9.59681L23.0481 8.61273C23.0481 8.61273 18.3417 19.885 21.5154 33.7837C24.6872 47.6764 42.1138 51.0719 42.1306 51.0747C42.1473 51.0719 59.5744 47.6764 62.7462 33.7837C65.9199 19.8846 61.2139 8.61273 61.2139 8.61273Z" fill="#FBDE8E"/>
<path opacity="0.2" d="M52.2631 9.57117L52.0212 9.59682L42.131 2.97681L38.0903 5.68196L61.7934 36.7602C62.1836 35.8255 62.5057 34.8354 62.7462 33.7837C63.4739 30.5966 63.7844 27.5502 63.8347 24.7434L52.2631 9.57117Z" fill="white"/>
<path opacity="0.2" d="M22.0846 11.5422C20.9737 15.5214 19.5053 23.1721 21.1695 32.094L33.038 47.6551C37.7817 50.2269 42.1222 51.073 42.131 51.0748H42.1315C42.1394 51.0739 45.8058 50.3583 50.0796 48.2476L22.0846 11.5422Z" fill="white"/>
<path d="M42.1315 46.5884C38.9704 45.7526 27.9112 42.1883 25.7696 32.8123C23.8858 24.5603 25.1128 17.2564 26.129 13.3304L33.3518 14.1047L42.131 8.22729L50.9108 14.1047L58.1345 13.3304C59.1493 17.2508 60.3772 24.5566 58.4929 32.8123C56.3514 42.1883 45.2921 45.7526 42.1315 46.5884Z" fill="#F9CE69"/>
<path d="M32.7728 15.8234L41.9548 9.94605L51.1368 15.8234L58.5405 15.065C58.4062 14.4324 58.2682 13.8506 58.134 13.3304L50.9103 14.1047L42.1305 8.22729L33.3513 14.1047L26.1285 13.3304C25.991 13.86 25.8512 14.4543 25.7146 15.1L32.7728 15.8234Z" fill="#D6A84C"/>
<path d="M43.1362 19.2825C42.9432 18.906 42.4032 18.905 42.2122 19.2825L41.0387 21.4955L38.3332 16.2735C38.0977 15.8365 37.4342 15.947 37.3572 16.436L34.6327 33.9985L45.7562 24.375L43.1362 19.2825Z" fill="#FFA000"/>
<path d="M43.5287 26.3021L41.0387 21.4961L34.6327 33.9986L43.5287 26.3021Z" fill="#F57F17"/>
<path d="M48.5607 20.9189C48.4957 20.5179 48.0032 20.3589 47.7157 20.6469L34.6327 34.0009L41.8722 37.8079C42.3307 38.0639 42.8892 38.0639 43.3477 37.8084L50.6312 34.0024L48.5607 20.9189Z" fill="#F1B80B"/>
</svg>
