<svg width="85" height="54" viewBox="0 0 85 54" fill="none" xmlns="http://www.w3.org/2000/svg">
<path d="M25.338 22.0585L28.2837 14.2712L0.518463 3.76807C0.518463 3.76807 -1.49956 11.9068 5.79731 14.6665C13.0942 17.4271 25.338 22.0585 25.338 22.0585Z" fill="#F9CE69"/>
<path d="M27.7145 32.7812L30.6597 24.9948L2.89451 14.4917C2.89451 14.4917 0.876021 22.6295 8.17289 25.3897C15.4707 28.1503 27.7145 32.7812 27.7145 32.7812Z" fill="#F9CE69"/>
<path d="M5.27149 25.2148C5.27149 25.2148 3.253 33.3531 10.5494 36.1128C17.8463 38.8735 30.0905 43.5048 30.0905 43.5048L33.0358 35.7175L5.27149 25.2148Z" fill="#F9CE69"/>
<path d="M25.338 18.2899L28.2837 10.5027L0.518463 0C0.518463 0 -1.49956 8.13829 5.79731 10.898C13.0942 13.6581 25.338 18.2899 25.338 18.2899Z" fill="#FBDE8E"/>
<path d="M27.7145 29.0131L30.6597 21.2263L2.89451 10.7231C2.89451 10.7231 0.876021 18.861 8.17289 21.6216C15.4707 24.3813 27.7145 29.0131 27.7145 29.0131Z" fill="#FBDE8E"/>
<path d="M5.27149 21.4468C5.27149 21.4468 3.253 29.5837 10.5494 32.3443C17.8463 35.1049 30.0905 39.7363 30.0905 39.7363L33.0358 31.949L5.27149 21.4468Z" fill="#FBDE8E"/>
<path d="M19.0843 32.5936C19.3622 33.8099 19.751 34.9445 20.226 36.0046C25.4764 37.9904 30.0905 39.7362 30.0905 39.7362L33.0357 31.9489L18.1259 26.3083C18.2853 28.3175 18.5884 30.4241 19.0843 32.5936Z" fill="#F9CE69"/>
<path d="M18.0639 25.3626C23.2249 27.3149 27.7145 29.0131 27.7145 29.0131L30.6597 21.2263L18.3893 16.5847C18.0532 19.137 17.8751 22.1125 18.0639 25.3626Z" fill="#F9CE69"/>
<path d="M28.2837 10.5026L20.5547 7.57837C20.2852 8.26922 19.1846 11.2667 18.5138 15.7078C22.383 17.172 25.338 18.2899 25.338 18.2899L28.2837 10.5026Z" fill="#F9CE69"/>
<path d="M59.4495 22.0585L56.5038 14.2712L84.2691 3.76807C84.2691 3.76807 86.2871 11.9068 78.9902 14.6665C71.6933 17.4271 59.4495 22.0585 59.4495 22.0585Z" fill="#F9CE69"/>
<path d="M57.0735 32.7812L54.1278 24.9948L81.893 14.4917C81.893 14.4917 83.9115 22.6295 76.6146 25.3897C69.3168 28.1503 57.0735 32.7812 57.0735 32.7812Z" fill="#F9CE69"/>
<path d="M79.5161 25.2148C79.5161 25.2148 81.5345 33.3531 74.2381 36.1128C66.9413 38.8735 54.697 43.5048 54.697 43.5048L51.7518 35.7175L79.5161 25.2148Z" fill="#F9CE69"/>
<path d="M59.4495 18.2899L56.5038 10.5027L84.2691 0C84.2691 0 86.2871 8.13829 78.9902 10.898C71.6933 13.6581 59.4495 18.2899 59.4495 18.2899Z" fill="#FBDE8E"/>
<path d="M57.0735 29.0131L54.1278 21.2263L81.893 10.7231C81.893 10.7231 83.9115 18.861 76.6146 21.6216C69.3168 24.3813 57.0735 29.0131 57.0735 29.0131Z" fill="#FBDE8E"/>
<path d="M79.5161 21.4468C79.5161 21.4468 81.5345 29.5837 74.2381 32.3443C66.9413 35.1049 54.697 39.7363 54.697 39.7363L51.7518 31.949L79.5161 21.4468Z" fill="#FBDE8E"/>
<path d="M65.7031 32.5936C65.4253 33.8099 65.0365 34.9445 64.5615 36.0046C59.3111 37.9904 54.697 39.7362 54.697 39.7362L51.7518 31.9489L66.6616 26.3083C66.5021 28.3175 66.1991 30.4241 65.7031 32.5936Z" fill="#F9CE69"/>
<path d="M66.724 25.3626C61.5627 27.3149 57.0735 29.0131 57.0735 29.0131L54.1278 21.2263L66.3982 16.5847C66.7343 19.137 66.9124 22.1125 66.724 25.3626Z" fill="#F9CE69"/>
<path d="M56.5038 10.5026L64.2329 7.57837C64.5023 8.26922 65.6029 11.2667 66.2737 15.7078C62.4046 17.172 59.4495 18.2899 59.4495 18.2899L56.5038 10.5026Z" fill="#F9CE69"/>
<path d="M61.4764 11.5381L52.2837 12.5231L42.3935 5.90306L32.5029 12.5231L23.3106 11.5381C23.3106 11.5381 18.6042 22.8108 21.7779 36.7091C24.9496 50.6012 42.3763 53.9972 42.393 54C42.4098 53.9972 59.8369 50.6012 63.0087 36.7091C66.1823 22.8108 61.4764 11.5381 61.4764 11.5381Z" fill="#F9CE69"/>
<path opacity="0.8" d="M61.4764 8.99552L52.2837 9.98006L42.3935 3.36007L32.5029 9.98006L23.3106 8.99552C23.3106 8.99552 18.6042 20.2678 21.7779 34.167C24.9496 48.0592 42.3763 51.4542 42.393 51.4575C42.4098 51.4542 59.8369 48.0592 63.0087 34.167C66.1823 20.2678 61.4764 8.99552 61.4764 8.99552Z" fill="white"/>
<path d="M61.4764 8.61273L52.2837 9.59681L42.3935 2.97681L32.5029 9.59681L23.3106 8.61273C23.3106 8.61273 18.6042 19.885 21.7779 33.7837C24.9496 47.6764 42.3763 51.0719 42.393 51.0747C42.4098 51.0719 59.8369 47.6764 63.0087 33.7837C66.1823 19.8846 61.4764 8.61273 61.4764 8.61273Z" fill="#FBDE8E"/>
<path opacity="0.2" d="M52.5256 9.57117L52.2837 9.59682L42.3936 2.97681L38.3528 5.68196L62.0559 36.7602C62.4461 35.8255 62.7682 34.8354 63.0087 33.7837C63.7364 30.5966 64.0469 27.5502 64.0972 24.7434L52.5256 9.57117Z" fill="white"/>
<path opacity="0.2" d="M22.3471 11.5422C21.2362 15.5214 19.7678 23.1721 21.432 32.094L33.3006 47.6551C38.0442 50.2269 42.3847 51.073 42.3936 51.0748H42.394C42.402 51.0739 46.0683 50.3583 50.3421 48.2476L22.3471 11.5422Z" fill="white"/>
<path d="M42.394 46.5884C39.233 45.7526 28.1737 42.1883 26.0321 32.8123C24.1483 24.5603 25.3753 17.2564 26.3915 13.3304L33.6143 14.1047L42.3936 8.22729L51.1733 14.1047L58.397 13.3304C59.4118 17.2508 60.6397 24.5566 58.7555 32.8123C56.6139 42.1883 45.5546 45.7526 42.394 46.5884Z" fill="#F9CE69"/>
<path d="M33.0353 15.8234L42.2173 9.94605L51.3994 15.8234L58.803 15.065C58.6688 14.4324 58.5308 13.8506 58.3965 13.3304L51.1728 14.1047L42.3931 8.22729L33.6138 14.1047L26.3911 13.3304C26.2535 13.86 26.1137 14.4543 25.9771 15.1L33.0353 15.8234Z" fill="#D6A84C"/>
<path d="M52.7625 20.555V33.445C52.7625 34.08 52.3675 34.645 51.7725 34.8549L47.3625 36.9249L47.7625 31.5V22.5L47.3625 17.075L51.7725 19.145C52.3675 19.355 52.7625 19.92 52.7625 20.555Z" fill="#29B6F6"/>
<path d="M35.2625 31.9479L47.7625 22.4999V17.6764C47.7625 17.0774 47.0215 16.7974 46.625 17.2464L33.0915 29.6194C32.6415 30.0344 32.667 30.7529 33.145 31.1354C33.145 31.1354 33.807 31.7514 34.0465 31.9224C34.4145 32.1849 34.898 32.2149 35.2625 31.9479Z" fill="#0277BD"/>
<path d="M35.2625 22.0521L47.7625 31.5001V36.3236C47.7625 36.9226 47.0215 37.2026 46.625 36.7536L33.0915 24.3806C32.6415 23.9656 32.667 23.2471 33.145 22.8646C33.145 22.8646 33.807 22.2486 34.0465 22.0776C34.4145 21.8151 34.898 21.7851 35.2625 22.0521Z" fill="#0288D1"/>
</svg>
